<svg xmlns="http://www.w3.org/2000/svg" xmlns:xlink="http://www.w3.org/1999/xlink" width="500" zoomAndPan="magnify" viewBox="0 0 375 374.999991" height="500" preserveAspectRatio="xMidYMid meet" version="1.0"><defs><g/><clipPath id="c9af2b02be"><path d="M 0 0 L 370.703125 0 L 370.703125 370.703125 L 0 370.703125 Z M 0 0 " clip-rule="nonzero"/></clipPath><clipPath id="7cdf70ba9d"><path d="M 185.351562 0 C 82.984375 0 0 82.984375 0 185.351562 C 0 287.71875 82.984375 370.703125 185.351562 370.703125 C 287.71875 370.703125 370.703125 287.71875 370.703125 185.351562 C 370.703125 82.984375 287.71875 0 185.351562 0 Z M 185.351562 0 " clip-rule="nonzero"/></clipPath><clipPath id="855c5322fc"><path d="M 0 0 L 370.703125 0 L 370.703125 370.703125 L 0 370.703125 Z M 0 0 " clip-rule="nonzero"/></clipPath><clipPath id="eb0b0c62bc"><path d="M 185.351562 0 C 82.984375 0 0 82.984375 0 185.351562 C 0 287.71875 82.984375 370.703125 185.351562 370.703125 C 287.71875 370.703125 370.703125 287.71875 370.703125 185.351562 C 370.703125 82.984375 287.71875 0 185.351562 0 Z M 185.351562 0 " clip-rule="nonzero"/></clipPath><clipPath id="4c8181e336"><rect x="0" width="371" y="0" height="371"/></clipPath><clipPath id="7c67d238f5"><path d="M 2.03125 2.03125 L 368.671875 2.03125 L 368.671875 368.671875 L 2.03125 368.671875 Z M 2.03125 2.03125 " clip-rule="nonzero"/></clipPath><clipPath id="956113d856"><path d="M 185.351562 2.25 C 84.226562 2.25 2.25 84.226562 2.25 185.351562 C 2.25 286.476562 84.226562 368.453125 185.351562 368.453125 C 286.476562 368.453125 368.453125 286.476562 368.453125 185.351562 C 368.453125 84.226562 286.476562 2.25 185.351562 2.25 Z M 185.351562 2.25 " clip-rule="nonzero"/></clipPath><clipPath id="681d4fd2df"><path d="M 0.160156 0.160156 L 366.640625 0.160156 L 366.640625 366.640625 L 0.160156 366.640625 Z M 0.160156 0.160156 " clip-rule="nonzero"/></clipPath><clipPath id="3e22aec44c"><path d="M 183.351562 0.25 C 82.226562 0.25 0.25 82.226562 0.25 183.351562 C 0.25 284.476562 82.226562 366.453125 183.351562 366.453125 C 284.476562 366.453125 366.453125 284.476562 366.453125 183.351562 C 366.453125 82.226562 284.476562 0.25 183.351562 0.25 Z M 183.351562 0.25 " clip-rule="nonzero"/></clipPath><clipPath id="b42453d113"><rect x="0" width="367" y="0" height="367"/></clipPath></defs><g clip-path="url(#c9af2b02be)"><g clip-path="url(#7cdf70ba9d)"><g transform="matrix(1, 0, 0, 1, 0, 0)"><g clip-path="url(#4c8181e336)"><g clip-path="url(#855c5322fc)"><g clip-path="url(#eb0b0c62bc)"><path fill="#5d3a6a" d="M 0 0 L 370.703125 0 L 370.703125 370.703125 L 0 370.703125 Z M 0 0 " fill-opacity="1" fill-rule="nonzero"/></g></g></g></g></g></g><g clip-path="url(#7c67d238f5)"><g clip-path="url(#956113d856)"><g transform="matrix(1, 0, 0, 1, 2, 2)"><g clip-path="url(#b42453d113)"><g clip-path="url(#681d4fd2df)"><g clip-path="url(#3e22aec44c)"><rect x="-84.5" width="540" fill="#eeba2b" height="539.999987" y="-84.499998" fill-opacity="1"/></g></g></g></g></g></g><path fill="#6d412a" d="M 75.113281 125.171875 L 75.519531 121.566406 C 75.546875 121.265625 75.597656 120.96875 75.644531 120.667969 L 75.789062 119.773438 L 76.082031 117.976562 C 76.523438 115.597656 77.035156 113.222656 77.664062 110.875 C 78.898438 106.175781 80.511719 101.578125 82.34375 97.074219 C 84.207031 92.578125 86.316406 88.1875 88.597656 83.894531 C 89.171875 82.824219 89.753906 81.757812 90.34375 80.691406 C 90.929688 79.628906 91.550781 78.585938 92.15625 77.53125 C 92.753906 76.476562 93.398438 75.445312 94.015625 74.402344 C 94.636719 73.355469 95.28125 72.328125 95.921875 71.296875 L 96.882812 69.75 L 97.859375 68.21875 C 98.511719 67.195312 99.164062 66.171875 99.832031 65.160156 C 100.488281 64.140625 101.164062 63.132812 101.847656 62.125 L 102.863281 60.617188 L 103.902344 59.117188 C 106.660156 55.121094 109.558594 51.203125 112.609375 47.394531 C 115.664062 43.589844 118.902344 39.917969 122.339844 36.421875 C 125.78125 32.933594 129.453125 29.648438 133.34375 26.632812 C 137.238281 23.625 141.367188 20.882812 145.742188 18.566406 C 147.929688 17.410156 150.175781 16.355469 152.476562 15.421875 C 154.773438 14.484375 157.128906 13.667969 159.53125 13.019531 C 161.933594 12.367188 164.375 11.855469 166.847656 11.507812 C 169.324219 11.15625 171.820312 10.988281 174.320312 11.019531 C 179.3125 11.0625 184.3125 11.820312 189.054688 13.425781 C 191.425781 14.226562 193.726562 15.230469 195.917969 16.441406 C 196.464844 16.746094 197.019531 17.039062 197.539062 17.382812 L 198.335938 17.882812 C 198.601562 18.046875 198.863281 18.214844 199.117188 18.398438 L 199.886719 18.933594 C 200.144531 19.113281 200.386719 19.308594 200.636719 19.496094 C 201.136719 19.867188 201.617188 20.265625 202.097656 20.664062 C 205.917969 23.867188 209.109375 27.734375 211.691406 31.910156 C 212.980469 34 214.117188 36.175781 215.136719 38.390625 C 216.160156 40.609375 217.070312 42.871094 217.851562 45.175781 C 218.632812 47.476562 219.332031 49.800781 219.933594 52.148438 C 220.519531 54.5 221.042969 56.859375 221.472656 59.242188 C 220.824219 56.914062 220.140625 54.597656 219.367188 52.316406 C 218.609375 50.027344 217.769531 47.773438 216.839844 45.558594 C 214.988281 41.132812 212.800781 36.851562 210.089844 32.953125 C 207.410156 29.039062 204.214844 25.492188 200.5 22.652344 C 196.796875 19.792969 192.589844 17.667969 188.128906 16.316406 C 185.902344 15.632812 183.609375 15.167969 181.300781 14.863281 C 178.992188 14.558594 176.660156 14.417969 174.328125 14.449219 C 169.664062 14.507812 165.027344 15.273438 160.53125 16.574219 C 156.035156 17.863281 151.691406 19.722656 147.550781 21.953125 C 143.398438 24.175781 139.457031 26.804688 135.71875 29.707031 C 131.964844 32.597656 128.417969 35.757812 125.058594 39.125 C 121.6875 42.480469 118.511719 46.042969 115.464844 49.722656 C 109.371094 57.085938 103.828125 64.949219 98.464844 72.929688 C 97.796875 73.929688 97.128906 74.929688 96.484375 75.941406 C 95.839844 76.953125 95.171875 77.953125 94.546875 78.976562 C 93.921875 80 93.273438 81.011719 92.660156 82.039062 L 90.808594 85.128906 C 88.375 89.261719 86.121094 93.5 84.082031 97.839844 C 79.96875 106.5 76.808594 115.644531 75.109375 125.167969 Z M 75.113281 125.171875 " fill-opacity="1" fill-rule="nonzero"/><path fill="#6d412a" d="M 134.351562 74.785156 C 134.933594 80.1875 133.164062 85.941406 129.4375 90.226562 C 127.574219 92.355469 125.285156 94.148438 122.707031 95.40625 C 121.421875 96.046875 120.0625 96.554688 118.664062 96.921875 C 117.96875 97.101562 117.152344 97.300781 116.15625 97.207031 C 115.15625 97.128906 113.996094 96.527344 113.382812 95.570312 C 113.0625 95.105469 112.878906 94.605469 112.765625 94.128906 C 112.648438 93.644531 112.625 93.183594 112.625 92.734375 C 112.652344 91.835938 112.832031 91 113.152344 90.199219 C 113.226562 89.996094 113.324219 89.800781 113.417969 89.601562 C 113.511719 89.421875 113.609375 89.257812 113.703125 89.085938 L 113.847656 88.828125 L 114.007812 88.582031 L 114.328125 88.09375 C 114.789062 87.46875 115.277344 86.863281 115.832031 86.328125 C 116.382812 85.789062 116.964844 85.285156 117.589844 84.847656 C 118.203125 84.390625 118.859375 84.007812 119.527344 83.65625 C 120.871094 82.960938 122.292969 82.445312 123.761719 82.117188 C 126.6875 81.453125 129.65625 81.511719 132.484375 81.890625 C 135.320312 82.273438 138.03125 83.007812 140.648438 83.75 C 143.265625 84.511719 145.804688 85.292969 148.339844 85.832031 C 150.871094 86.390625 153.453125 86.707031 156.042969 86.820312 C 161.222656 87.054688 166.453125 86.339844 171.386719 84.699219 C 176.328125 83.070312 180.914062 80.367188 184.855469 76.859375 C 186.832031 75.105469 188.601562 73.117188 190.183594 70.972656 L 190.773438 70.160156 L 191.320312 69.324219 C 191.703125 68.769531 192.027344 68.1875 192.367188 67.605469 L 192.628906 67.171875 L 192.863281 66.726562 L 193.332031 65.832031 C 193.496094 65.539062 193.621094 65.222656 193.769531 64.917969 L 194.203125 64 C 194.007812 64.648438 193.835938 65.308594 193.613281 65.949219 L 193.269531 66.910156 L 193.09375 67.394531 L 192.898438 67.867188 C 192.628906 68.492188 192.363281 69.125 192.046875 69.734375 L 191.589844 70.65625 L 191.089844 71.554688 C 189.738281 73.949219 188.089844 76.195312 186.195312 78.222656 C 182.40625 82.269531 177.671875 85.523438 172.4375 87.570312 C 171.78125 87.816406 171.128906 88.085938 170.460938 88.292969 L 169.460938 88.625 C 169.125 88.730469 168.785156 88.820312 168.449219 88.917969 C 168.109375 89.011719 167.773438 89.113281 167.429688 89.195312 L 166.40625 89.433594 C 165.722656 89.609375 165.027344 89.71875 164.335938 89.851562 C 161.570312 90.359375 158.75 90.550781 155.933594 90.511719 C 153.121094 90.464844 150.3125 90.144531 147.546875 89.59375 C 144.785156 89.027344 142.148438 88.222656 139.574219 87.488281 C 136.996094 86.738281 134.46875 86.058594 131.945312 85.691406 C 130.683594 85.496094 129.429688 85.390625 128.183594 85.382812 C 126.945312 85.386719 125.710938 85.480469 124.53125 85.71875 C 122.175781 86.171875 119.921875 87.238281 118.199219 88.796875 C 117.761719 89.183594 117.386719 89.621094 117.023438 90.066406 L 116.773438 90.417969 L 116.648438 90.589844 L 116.539062 90.773438 L 116.316406 91.132812 C 116.261719 91.242188 116.199219 91.339844 116.152344 91.457031 C 115.945312 91.898438 115.816406 92.398438 115.777344 92.855469 C 115.742188 93.308594 115.816406 93.707031 115.9375 93.898438 C 115.996094 94 116.046875 94.074219 116.148438 94.136719 C 116.234375 94.210938 116.347656 94.253906 116.523438 94.289062 C 116.875 94.359375 117.417969 94.308594 118.03125 94.175781 C 119.265625 93.933594 120.476562 93.5625 121.65625 93.085938 C 122.835938 92.613281 123.964844 92.011719 125.039062 91.3125 C 126.113281 90.617188 127.125 89.8125 128.054688 88.917969 C 129.921875 87.132812 131.417969 84.945312 132.507812 82.542969 C 133.050781 81.339844 133.46875 80.074219 133.777344 78.773438 C 134.097656 77.472656 134.277344 76.136719 134.351562 74.785156 Z M 134.351562 74.785156 " fill-opacity="1" fill-rule="nonzero"/><path fill="#6d412a" d="M 158.855469 137.199219 C 158.507812 137.65625 158.085938 138.082031 157.605469 138.445312 C 157.121094 138.792969 156.59375 139.105469 156.027344 139.335938 C 154.894531 139.804688 153.648438 140.023438 152.398438 140.015625 C 151.773438 140.015625 151.148438 139.949219 150.523438 139.835938 C 149.894531 139.734375 149.285156 139.539062 148.695312 139.335938 C 147.507812 138.914062 146.398438 138.316406 145.371094 137.636719 C 144.863281 137.289062 144.367188 136.925781 143.890625 136.546875 C 143.417969 136.164062 142.964844 135.765625 142.523438 135.359375 C 142.085938 134.953125 141.652344 134.542969 141.242188 134.117188 C 140.832031 133.695312 140.441406 133.261719 140.039062 132.832031 C 139.839844 132.617188 139.636719 132.40625 139.441406 132.183594 L 138.875 131.511719 C 138.5 131.058594 138.105469 130.625 137.75 130.15625 L 136.679688 128.757812 C 136.332031 128.28125 136 127.800781 135.65625 127.320312 C 132.992188 123.453125 130.882812 119.207031 129.390625 114.777344 C 128.664062 112.554688 128.074219 110.292969 127.675781 108 C 127.5 106.851562 127.316406 105.707031 127.238281 104.546875 C 127.121094 103.394531 127.097656 102.230469 127.101562 101.078125 C 127.527344 102.160156 127.882812 103.246094 128.296875 104.308594 C 128.496094 104.84375 128.679688 105.378906 128.898438 105.902344 C 129.113281 106.429688 129.304688 106.960938 129.519531 107.484375 C 130.363281 109.574219 131.269531 111.621094 132.230469 113.628906 C 134.167969 117.640625 136.371094 121.480469 138.867188 125.121094 C 139.183594 125.574219 139.492188 126.03125 139.808594 126.484375 C 140.136719 126.925781 140.46875 127.367188 140.792969 127.816406 C 141.109375 128.269531 141.464844 128.691406 141.796875 129.132812 L 142.304688 129.789062 L 142.828125 130.429688 C 144.214844 132.164062 145.636719 133.820312 147.210938 135.203125 C 147.609375 135.539062 148.011719 135.875 148.433594 136.179688 C 148.855469 136.476562 149.285156 136.761719 149.734375 137.011719 C 150.1875 137.265625 150.636719 137.492188 151.113281 137.671875 C 151.347656 137.777344 151.597656 137.84375 151.839844 137.929688 C 152.089844 137.996094 152.339844 138.070312 152.59375 138.125 C 154.613281 138.574219 156.878906 138.441406 158.855469 137.199219 Z M 158.855469 137.199219 " fill-opacity="1" fill-rule="nonzero"/><path fill="#6d412a" d="M 129.890625 113.003906 C 128.441406 111.964844 127 110.921875 125.519531 109.941406 C 124.042969 108.949219 122.550781 107.996094 121.011719 107.136719 C 117.9375 105.417969 114.71875 103.953125 111.359375 103.175781 C 109.683594 102.78125 107.980469 102.523438 106.277344 102.449219 C 104.578125 102.378906 102.882812 102.484375 101.238281 102.796875 C 99.601562 103.113281 98.007812 103.609375 96.542969 104.359375 L 95.460938 104.949219 C 95.109375 105.160156 94.773438 105.402344 94.425781 105.621094 C 94.074219 105.832031 93.765625 106.113281 93.4375 106.363281 L 92.949219 106.742188 L 92.492188 107.160156 C 91.863281 107.699219 91.304688 108.316406 90.738281 108.921875 L 89.9375 109.886719 C 89.671875 110.207031 89.441406 110.558594 89.1875 110.894531 C 88.21875 112.265625 87.332031 113.710938 86.570312 115.242188 C 85.808594 116.769531 85.132812 118.347656 84.515625 119.957031 C 83.910156 121.578125 83.367188 123.222656 82.875 124.894531 C 81.882812 128.257812 81.035156 131.660156 80.332031 135.089844 C 79.609375 138.519531 79.066406 141.984375 78.660156 145.460938 C 77.015625 159.378906 77.632812 173.570312 80.484375 187.347656 C 83.3125 201.136719 88.347656 214.5 95.402344 226.894531 C 94.359375 225.449219 93.328125 223.992188 92.355469 222.492188 L 91.625 221.371094 L 90.226562 219.082031 L 89.875 218.507812 L 89.542969 217.925781 L 88.210938 215.59375 L 86.960938 213.214844 L 86.644531 212.621094 L 86.347656 212.019531 L 85.160156 209.605469 L 84.597656 208.382812 L 84.042969 207.15625 C 83.855469 206.746094 83.671875 206.335938 83.503906 205.917969 L 82.464844 203.433594 C 81.8125 201.757812 81.164062 200.082031 80.582031 198.378906 L 80.136719 197.105469 C 79.992188 196.679688 79.859375 196.25 79.722656 195.820312 L 79.316406 194.53125 C 79.179688 194.105469 79.042969 193.675781 78.921875 193.242188 L 78.175781 190.644531 C 77.945312 189.773438 77.726562 188.898438 77.503906 188.027344 C 74.019531 174.035156 73.09375 159.371094 74.800781 145.003906 C 75.242188 141.414062 75.804688 137.835938 76.582031 134.300781 C 76.757812 133.414062 76.980469 132.535156 77.1875 131.65625 L 77.503906 130.335938 C 77.609375 129.894531 77.734375 129.460938 77.851562 129.023438 C 78.089844 128.152344 78.3125 127.277344 78.570312 126.410156 L 79.359375 123.8125 C 79.910156 122.082031 80.519531 120.359375 81.199219 118.65625 C 81.886719 116.957031 82.671875 115.285156 83.546875 113.652344 C 84.425781 112.019531 85.441406 110.441406 86.582031 108.949219 C 86.878906 108.582031 87.15625 108.199219 87.472656 107.847656 L 88.417969 106.792969 C 89.089844 106.121094 89.757812 105.445312 90.503906 104.847656 L 91.050781 104.390625 L 91.632812 103.96875 C 92.027344 103.695312 92.398438 103.394531 92.820312 103.164062 C 93.234375 102.921875 93.640625 102.667969 94.0625 102.4375 L 95.355469 101.8125 C 97.101562 101.019531 98.972656 100.53125 100.84375 100.28125 C 102.714844 100.035156 104.601562 100.015625 106.449219 100.210938 C 108.300781 100.414062 110.113281 100.796875 111.871094 101.347656 C 113.625 101.898438 115.320312 102.613281 116.929688 103.441406 C 118.546875 104.273438 120.101562 105.199219 121.582031 106.226562 C 123.066406 107.242188 124.488281 108.335938 125.871094 109.472656 C 127.246094 110.617188 128.585938 111.792969 129.894531 113.007812 Z M 129.890625 113.003906 " fill-opacity="1" fill-rule="nonzero"/><path fill="#6d412a" d="M 157.859375 137.058594 C 156.980469 136.019531 156.117188 134.957031 155.417969 133.734375 C 155.066406 133.128906 154.761719 132.480469 154.515625 131.792969 C 154.273438 131.097656 154.117188 130.367188 154.054688 129.609375 C 153.988281 128.855469 154.042969 128.070312 154.214844 127.289062 C 154.398438 126.507812 154.730469 125.726562 155.226562 125.039062 C 155.46875 124.691406 155.75 124.382812 156.042969 124.09375 C 156.339844 123.816406 156.652344 123.550781 156.980469 123.328125 C 157.625 122.867188 158.296875 122.5 158.957031 122.195312 C 159.617188 121.886719 160.269531 121.621094 160.886719 121.367188 C 161.496094 121.109375 162.078125 120.839844 162.675781 120.578125 L 163.566406 120.183594 C 163.863281 120.050781 164.148438 119.890625 164.4375 119.75 L 166.171875 118.875 C 166.730469 118.542969 167.296875 118.226562 167.859375 117.90625 C 168.136719 117.742188 168.425781 117.597656 168.699219 117.417969 L 169.515625 116.890625 C 170.054688 116.53125 170.617188 116.210938 171.144531 115.835938 L 172.722656 114.703125 L 173.121094 114.421875 C 173.253906 114.328125 173.375 114.222656 173.503906 114.125 L 174.265625 113.523438 C 174.769531 113.113281 175.296875 112.734375 175.769531 112.292969 L 177.238281 111.019531 C 177.726562 110.589844 178.171875 110.117188 178.652344 109.675781 L 179.359375 109.007812 C 179.589844 108.78125 179.804688 108.535156 180.03125 108.300781 C 180.472656 107.824219 180.925781 107.355469 181.378906 106.886719 L 182.652344 105.402344 C 182.863281 105.15625 183.089844 104.914062 183.292969 104.660156 L 183.894531 103.886719 C 185.554688 101.859375 187.003906 99.664062 188.398438 97.40625 L 189.410156 95.6875 C 189.59375 95.40625 189.730469 95.101562 189.886719 94.808594 L 190.359375 93.921875 L 190.835938 93.03125 C 190.992188 92.734375 191.125 92.425781 191.269531 92.121094 C 191.570312 91.515625 191.855469 90.898438 192.167969 90.289062 C 192.070312 90.960938 191.945312 91.632812 191.828125 92.308594 C 191.765625 92.644531 191.710938 92.984375 191.632812 93.316406 L 191.371094 94.308594 L 191.101562 95.304688 C 191.007812 95.632812 190.929688 95.972656 190.8125 96.292969 L 190.125 98.242188 C 189.121094 100.808594 187.90625 103.320312 186.394531 105.65625 L 185.839844 106.539062 C 185.652344 106.832031 185.441406 107.109375 185.242188 107.394531 L 184.015625 109.085938 C 183.574219 109.625 183.132812 110.167969 182.683594 110.703125 C 182.457031 110.964844 182.242188 111.242188 182.003906 111.5 L 181.289062 112.261719 C 181.046875 112.519531 180.8125 112.773438 180.566406 113.023438 C 180.320312 113.273438 180.089844 113.539062 179.828125 113.769531 L 178.292969 115.195312 C 178.039062 115.4375 177.777344 115.667969 177.5 115.886719 L 175.867188 117.207031 C 175.730469 117.316406 175.597656 117.429688 175.457031 117.53125 L 175.03125 117.839844 C 172.78125 119.507812 170.34375 120.917969 167.835938 122.160156 L 165.910156 123 C 165.589844 123.136719 165.273438 123.285156 164.945312 123.40625 L 163.953125 123.753906 C 163.292969 123.980469 162.632812 124.230469 161.976562 124.433594 C 161.324219 124.628906 160.703125 124.8125 160.117188 125.015625 C 158.941406 125.417969 157.921875 125.898438 157.214844 126.636719 C 156.503906 127.347656 156.070312 128.425781 155.957031 129.613281 C 155.820312 130.796875 156.027344 132.050781 156.40625 133.304688 C 156.785156 134.554688 157.332031 135.800781 157.855469 137.0625 Z M 157.859375 137.058594 " fill-opacity="1" fill-rule="nonzero"/><path fill="#6d412a" d="M 183.230469 106.777344 C 182.773438 104.710938 182.644531 102.5625 182.894531 100.445312 C 183.011719 99.386719 183.199219 98.332031 183.46875 97.300781 C 183.738281 96.265625 184.074219 95.25 184.460938 94.253906 C 186.039062 90.277344 188.445312 86.675781 191.160156 83.390625 C 192.519531 81.75 193.96875 80.179688 195.488281 78.679688 C 197.007812 77.191406 198.558594 75.730469 200.160156 74.324219 C 201.769531 72.929688 203.402344 71.554688 205.113281 70.277344 L 205.75 69.789062 L 206.402344 69.320312 C 206.835938 69.007812 207.265625 68.6875 207.703125 68.382812 C 208.589844 67.785156 209.46875 67.167969 210.378906 66.609375 C 211.277344 66.019531 212.207031 65.488281 213.132812 64.945312 C 213.597656 64.675781 214.074219 64.429688 214.546875 64.171875 L 215.253906 63.789062 C 215.492188 63.664062 215.734375 63.550781 215.976562 63.429688 L 217.425781 62.714844 L 218.898438 62.054688 C 219.386719 61.824219 219.890625 61.628906 220.386719 61.429688 C 220.890625 61.234375 221.382812 61.015625 221.894531 60.839844 L 223.421875 60.296875 C 223.929688 60.117188 224.453125 59.972656 224.96875 59.808594 C 225.992188 59.472656 227.054688 59.234375 228.105469 58.957031 L 229.699219 58.628906 C 229.964844 58.578125 230.230469 58.519531 230.496094 58.472656 L 231.300781 58.347656 C 231.839844 58.269531 232.371094 58.171875 232.910156 58.109375 L 234.53125 57.941406 C 236.695312 57.769531 238.878906 57.683594 241.058594 57.839844 L 241.875 57.886719 C 242.148438 57.902344 242.417969 57.941406 242.6875 57.964844 L 244.316406 58.144531 L 245.9375 58.410156 C 246.207031 58.457031 246.476562 58.488281 246.746094 58.550781 L 247.546875 58.730469 C 251.832031 59.644531 255.980469 61.332031 259.695312 63.746094 L 261.0625 64.695312 L 261.402344 64.933594 L 261.726562 65.195312 L 262.375 65.714844 C 263.257812 66.386719 264.042969 67.164062 264.859375 67.90625 C 265.253906 68.296875 265.625 68.699219 266.011719 69.097656 C 266.199219 69.296875 266.394531 69.492188 266.578125 69.695312 L 267.117188 70.324219 C 267.46875 70.746094 267.835938 71.15625 268.175781 71.585938 L 269.175781 72.898438 C 270.464844 74.667969 271.652344 76.507812 272.691406 78.417969 L 273.09375 79.128906 L 273.464844 79.847656 L 274.207031 81.296875 C 274.667969 82.277344 275.152344 83.246094 275.570312 84.238281 C 277.324219 88.183594 278.761719 92.21875 280.113281 96.253906 C 281.453125 100.28125 282.742188 104.332031 283.941406 108.417969 C 286.332031 116.589844 288.320312 124.917969 289.5625 133.40625 C 290.179688 137.648438 290.589844 141.929688 290.765625 146.230469 C 290.9375 150.527344 290.859375 154.855469 290.480469 159.152344 C 289.691406 167.746094 287.75 176.28125 284.355469 184.285156 C 282.652344 188.28125 280.585938 192.132812 278.144531 195.742188 L 277.222656 197.09375 C 277.074219 197.320312 276.910156 197.535156 276.742188 197.75 L 276.246094 198.402344 C 275.574219 199.265625 274.945312 200.136719 274.199219 200.988281 C 273.464844 201.835938 272.667969 202.664062 271.769531 203.433594 C 270.875 204.199219 269.863281 204.90625 268.714844 205.445312 C 268.433594 205.585938 268.128906 205.695312 267.832031 205.8125 C 267.523438 205.917969 267.21875 206.019531 266.898438 206.097656 C 266.578125 206.171875 266.265625 206.253906 265.933594 206.289062 C 265.769531 206.3125 265.613281 206.335938 265.441406 206.355469 C 265.257812 206.363281 265.074219 206.382812 264.894531 206.378906 C 263.445312 206.386719 262.101562 205.957031 260.9375 205.273438 C 259.777344 204.578125 258.753906 203.621094 258.0625 202.324219 C 257.71875 201.675781 257.472656 200.9375 257.402344 200.144531 C 257.320312 199.355469 257.445312 198.53125 257.714844 197.796875 C 257.984375 197.078125 258.394531 196.429688 258.859375 195.902344 C 259.324219 195.371094 259.828125 194.945312 260.320312 194.582031 C 261.308594 193.859375 262.269531 193.339844 263.074219 192.8125 C 263.761719 192.367188 264.398438 191.75 264.765625 191.148438 C 264.949219 190.847656 265.058594 190.5625 265.089844 190.339844 C 265.117188 190.117188 265.089844 189.957031 265.007812 189.773438 C 264.921875 189.59375 264.8125 189.46875 264.601562 189.335938 C 264.394531 189.203125 264.085938 189.09375 263.722656 189.03125 C 263.363281 188.96875 262.953125 188.953125 262.539062 188.980469 C 262.332031 188.992188 262.121094 189.015625 261.910156 189.050781 C 261.808594 189.070312 261.703125 189.085938 261.597656 189.109375 C 261.496094 189.132812 261.394531 189.148438 261.277344 189.1875 C 259.414062 189.65625 257.625 190.472656 255.921875 191.496094 C 254.214844 192.523438 252.589844 193.761719 251 195.085938 C 249.40625 196.410156 247.84375 197.824219 246.230469 199.21875 C 245.421875 199.917969 244.601562 200.617188 243.757812 201.292969 C 243.34375 201.640625 242.898438 201.964844 242.472656 202.296875 C 242.257812 202.46875 242.035156 202.621094 241.808594 202.777344 L 241.136719 203.246094 L 239.785156 204.175781 C 239.328125 204.472656 238.851562 204.738281 238.386719 205.023438 L 236.976562 205.855469 L 235.523438 206.601562 C 231.640625 208.570312 227.527344 210.015625 223.347656 211.042969 C 219.167969 212.074219 214.921875 212.722656 210.675781 213.152344 C 206.429688 213.570312 202.175781 213.78125 197.9375 213.882812 C 193.691406 213.976562 189.46875 213.996094 185.25 214.109375 C 181.03125 214.21875 176.824219 214.421875 172.632812 214.824219 C 168.445312 215.234375 164.273438 215.878906 160.191406 216.910156 C 156.105469 217.925781 152.109375 219.355469 148.335938 221.265625 C 152.003906 219.152344 155.96875 217.554688 160.035156 216.34375 C 164.113281 215.140625 168.296875 214.332031 172.507812 213.753906 C 180.933594 212.605469 189.441406 212.425781 197.859375 211.976562 C 202.070312 211.75 206.269531 211.453125 210.425781 210.929688 C 214.582031 210.410156 218.703125 209.667969 222.707031 208.570312 C 226.707031 207.46875 230.605469 206.03125 234.230469 204.105469 L 235.589844 203.382812 L 236.894531 202.578125 C 237.328125 202.304688 237.773438 202.046875 238.195312 201.761719 L 239.4375 200.867188 L 240.0625 200.421875 C 240.269531 200.273438 240.476562 200.125 240.675781 199.960938 C 241.074219 199.636719 241.480469 199.332031 241.871094 198.992188 C 242.664062 198.332031 243.445312 197.644531 244.222656 196.945312 C 245.78125 195.546875 247.332031 194.09375 248.964844 192.6875 C 250.597656 191.277344 252.316406 189.90625 254.214844 188.71875 C 256.109375 187.53125 258.203125 186.542969 260.4375 185.949219 C 260.570312 185.90625 260.730469 185.871094 260.882812 185.835938 C 261.035156 185.800781 261.195312 185.773438 261.347656 185.742188 C 261.660156 185.6875 261.976562 185.648438 262.292969 185.625 C 262.929688 185.574219 263.585938 185.582031 264.269531 185.691406 C 264.953125 185.800781 265.667969 186.003906 266.367188 186.421875 C 267.066406 186.828125 267.714844 187.496094 268.089844 188.273438 C 268.476562 189.039062 268.621094 189.964844 268.507812 190.792969 C 268.398438 191.621094 268.097656 192.332031 267.742188 192.9375 C 267.378906 193.542969 266.957031 194.058594 266.496094 194.523438 C 266.039062 194.984375 265.542969 195.386719 265.007812 195.746094 C 264.046875 196.386719 263.148438 196.890625 262.4375 197.429688 C 262.082031 197.699219 261.78125 197.96875 261.550781 198.238281 C 261.320312 198.507812 261.167969 198.769531 261.066406 199.042969 C 260.984375 199.300781 260.941406 199.546875 260.972656 199.8125 C 261 200.074219 261.089844 200.355469 261.246094 200.640625 C 261.550781 201.214844 262.117188 201.769531 262.777344 202.148438 C 263.433594 202.527344 264.183594 202.742188 264.851562 202.722656 C 264.9375 202.726562 265.019531 202.714844 265.101562 202.710938 C 265.1875 202.703125 265.292969 202.679688 265.390625 202.667969 C 265.589844 202.648438 265.78125 202.589844 265.980469 202.546875 C 266.175781 202.496094 266.367188 202.429688 266.5625 202.363281 C 266.753906 202.277344 266.949219 202.21875 267.136719 202.113281 C 270.226562 200.601562 272.699219 196.957031 275.015625 193.644531 C 277.292969 190.238281 279.226562 186.59375 280.816406 182.800781 C 284.011719 175.214844 285.863281 167.058594 286.605469 158.816406 C 287.351562 150.566406 286.925781 142.214844 285.765625 133.960938 C 284.613281 125.695312 282.683594 117.527344 280.402344 109.445312 C 279.257812 105.40625 278.019531 101.382812 276.722656 97.375 C 275.417969 93.378906 274.074219 89.421875 272.4375 85.613281 C 272.042969 84.652344 271.59375 83.726562 271.167969 82.78125 L 270.480469 81.398438 L 270.132812 80.710938 L 269.765625 80.035156 C 268.808594 78.214844 267.707031 76.488281 266.542969 74.816406 L 265.640625 73.585938 C 265.332031 73.183594 265 72.800781 264.683594 72.40625 L 264.199219 71.816406 L 263.6875 71.257812 C 263.339844 70.890625 263.003906 70.511719 262.652344 70.148438 C 261.917969 69.457031 261.210938 68.730469 260.417969 68.109375 L 259.835938 67.625 L 259.546875 67.382812 L 259.242188 67.160156 L 258.019531 66.277344 C 254.679688 64.023438 250.898438 62.394531 246.929688 61.472656 L 246.1875 61.292969 C 245.941406 61.230469 245.6875 61.199219 245.433594 61.148438 L 243.929688 60.871094 L 242.410156 60.679688 C 242.15625 60.648438 241.902344 60.609375 241.648438 60.589844 L 240.882812 60.535156 C 238.839844 60.355469 236.78125 60.375 234.730469 60.488281 L 233.195312 60.609375 C 232.683594 60.65625 232.175781 60.734375 231.664062 60.796875 L 230.898438 60.894531 C 230.644531 60.929688 230.390625 60.984375 230.136719 61.027344 L 228.617188 61.300781 C 227.617188 61.542969 226.605469 61.738281 225.613281 62.039062 C 225.117188 62.183594 224.613281 62.304688 224.121094 62.46875 L 222.644531 62.949219 C 222.152344 63.105469 221.671875 63.304688 221.1875 63.480469 C 220.699219 63.660156 220.210938 63.835938 219.738281 64.042969 L 218.300781 64.644531 L 216.886719 65.300781 C 216.652344 65.410156 216.414062 65.515625 216.179688 65.628906 L 215.484375 65.984375 C 215.023438 66.222656 214.554688 66.449219 214.097656 66.699219 C 213.1875 67.203125 212.269531 67.695312 211.378906 68.238281 C 210.472656 68.757812 209.601562 69.332031 208.714844 69.886719 C 208.277344 70.171875 207.847656 70.472656 207.414062 70.761719 L 206.765625 71.203125 L 206.125 71.65625 C 204.410156 72.859375 202.765625 74.160156 201.136719 75.480469 C 199.515625 76.816406 197.941406 78.207031 196.394531 79.632812 C 194.859375 81.0625 193.375 82.542969 191.976562 84.105469 C 189.191406 87.222656 186.710938 90.660156 185.007812 94.492188 C 184.585938 95.449219 184.210938 96.429688 183.902344 97.433594 C 183.59375 98.433594 183.363281 99.460938 183.199219 100.496094 C 182.867188 102.570312 182.890625 104.703125 183.238281 106.789062 Z M 183.230469 106.777344 " fill-opacity="1" fill-rule="nonzero"/><path fill="#6d412a" d="M 259.601562 85.257812 C 258.648438 85.671875 257.84375 86.335938 257.199219 87.117188 C 256.558594 87.902344 256.078125 88.808594 255.730469 89.75 C 255.035156 91.644531 254.882812 93.6875 254.75 95.738281 C 254.542969 99.890625 253.789062 104.066406 252.589844 108.085938 C 251.375 112.109375 249.71875 115.996094 247.746094 119.710938 C 246.761719 121.570312 245.683594 123.359375 244.621094 125.132812 C 243.558594 126.902344 242.511719 128.660156 241.550781 130.433594 C 239.632812 133.96875 238.101562 137.664062 237.785156 141.4375 C 237.605469 143.316406 237.765625 145.214844 238.128906 147.117188 C 238.488281 149.023438 239.070312 150.917969 239.734375 152.820312 C 240.066406 153.773438 240.425781 154.722656 240.78125 155.683594 C 241.148438 156.644531 241.507812 157.613281 241.878906 158.542969 C 242.621094 160.40625 243.429688 162.171875 244.472656 163.6875 C 244.730469 164.066406 245.007812 164.425781 245.292969 164.769531 C 245.578125 165.101562 245.875 165.425781 246.199219 165.71875 C 246.832031 166.324219 247.546875 166.824219 248.289062 167.222656 C 249.03125 167.621094 249.816406 167.875 250.589844 167.996094 C 251.367188 168.109375 252.121094 168.050781 252.882812 167.855469 C 254.390625 167.46875 255.835938 166.421875 257.140625 165.078125 C 257.792969 164.410156 258.417969 163.667969 259.027344 162.894531 C 259.640625 162.121094 260.242188 161.292969 260.863281 160.460938 L 268.292969 150.542969 C 270.785156 147.234375 273.253906 144.03125 274.980469 140.539062 C 275.832031 138.789062 276.472656 137 276.84375 135.101562 C 277.234375 133.207031 277.394531 131.230469 277.4375 129.226562 C 277.476562 127.222656 277.40625 125.1875 277.324219 123.125 L 277.082031 116.9375 C 276.917969 112.820312 276.699219 108.714844 276.339844 104.621094 C 276.167969 102.574219 275.957031 100.53125 275.699219 98.492188 C 275.441406 96.453125 275.132812 94.441406 274.5625 92.511719 C 273.984375 90.589844 273.085938 88.757812 271.683594 87.300781 C 270.984375 86.582031 270.191406 85.933594 269.285156 85.472656 C 268.390625 84.992188 267.390625 84.699219 266.359375 84.621094 C 267.394531 84.589844 268.445312 84.785156 269.414062 85.195312 C 270.394531 85.589844 271.285156 86.1875 272.089844 86.878906 C 272.878906 87.585938 273.582031 88.402344 274.152344 89.308594 C 274.730469 90.207031 275.191406 91.171875 275.582031 92.160156 C 276.355469 94.144531 276.792969 96.214844 277.1875 98.253906 C 277.585938 100.292969 277.929688 102.34375 278.238281 104.398438 C 278.828125 108.515625 279.253906 112.648438 279.628906 116.773438 C 279.824219 118.835938 279.980469 120.898438 280.148438 122.957031 C 280.308594 125.019531 280.476562 127.109375 280.5 129.238281 C 280.527344 131.363281 280.429688 133.53125 280.058594 135.699219 C 279.703125 137.871094 278.992188 140.019531 278.085938 142.007812 C 277.167969 143.992188 276.066406 145.859375 274.886719 147.621094 C 273.707031 149.386719 272.472656 151.066406 271.265625 152.738281 L 263.957031 162.746094 C 262.746094 164.394531 261.484375 166.15625 259.914062 167.777344 C 259.128906 168.585938 258.261719 169.367188 257.257812 170.042969 C 256.261719 170.71875 255.121094 171.289062 253.878906 171.613281 C 252.640625 171.9375 251.296875 172.027344 250.027344 171.832031 C 248.761719 171.632812 247.558594 171.222656 246.484375 170.640625 C 245.410156 170.0625 244.425781 169.355469 243.5625 168.53125 C 243.125 168.128906 242.722656 167.691406 242.339844 167.234375 C 241.964844 166.78125 241.621094 166.320312 241.300781 165.839844 C 240.019531 163.929688 239.140625 161.890625 238.375 159.917969 C 237.992188 158.925781 237.640625 157.953125 237.285156 156.980469 C 236.925781 156 236.582031 155.007812 236.25 154.003906 C 235.589844 151.992188 234.988281 149.921875 234.621094 147.753906 C 234.242188 145.597656 234.113281 143.332031 234.386719 141.097656 C 234.632812 138.867188 235.226562 136.710938 236.027344 134.691406 C 236.832031 132.664062 237.832031 130.761719 238.898438 128.9375 C 239.960938 127.109375 241.113281 125.367188 242.242188 123.636719 C 243.375 121.90625 244.496094 120.195312 245.539062 118.460938 C 247.625 114.980469 249.402344 111.308594 250.792969 107.488281 C 251.492188 105.578125 252.097656 103.632812 252.578125 101.652344 C 253.066406 99.671875 253.40625 97.675781 253.6875 95.625 C 253.980469 93.585938 254.300781 91.460938 255.195312 89.519531 C 255.652344 88.5625 256.238281 87.664062 256.980469 86.914062 C 257.71875 86.160156 258.617188 85.566406 259.609375 85.257812 Z M 259.601562 85.257812 " fill-opacity="1" fill-rule="nonzero"/><path fill="#6d412a" d="M 202.878906 87.75 C 203.734375 85.519531 204.960938 83.421875 206.40625 81.480469 C 207.863281 79.539062 209.5625 77.769531 211.441406 76.195312 C 215.203125 73.058594 219.710938 70.730469 224.527344 69.523438 C 229.34375 68.304688 234.414062 68.226562 239.214844 69.214844 C 241.617188 69.710938 243.949219 70.46875 246.148438 71.492188 L 247.769531 72.308594 C 248.292969 72.613281 248.816406 72.914062 249.328125 73.226562 C 249.832031 73.558594 250.328125 73.898438 250.820312 74.238281 C 251.292969 74.605469 251.765625 74.972656 252.21875 75.355469 C 251.652344 75.164062 251.097656 74.960938 250.542969 74.757812 C 249.980469 74.578125 249.421875 74.398438 248.871094 74.210938 C 248.308594 74.054688 247.75 73.882812 247.199219 73.722656 L 245.519531 73.300781 C 243.277344 72.777344 241.027344 72.417969 238.777344 72.242188 C 234.277344 71.878906 229.777344 72.21875 225.472656 73.296875 C 221.171875 74.375 217.042969 76.203125 213.25 78.652344 C 211.347656 79.871094 209.53125 81.25 207.804688 82.773438 C 206.074219 84.289062 204.453125 85.964844 202.875 87.753906 Z M 202.878906 87.75 " fill-opacity="1" fill-rule="nonzero"/><path fill="#6d412a" d="M 203.238281 99.429688 C 203.828125 98.546875 204.621094 97.832031 205.503906 97.242188 C 206.394531 96.652344 207.386719 96.210938 208.425781 95.902344 C 210.511719 95.296875 212.804688 95.296875 214.949219 95.914062 C 217.097656 96.53125 219.035156 97.753906 220.480469 99.375 C 221.203125 100.183594 221.800781 101.097656 222.242188 102.066406 C 222.34375 102.316406 222.445312 102.558594 222.535156 102.804688 C 222.617188 103.0625 222.699219 103.3125 222.765625 103.566406 C 222.824219 103.824219 222.875 104.085938 222.921875 104.339844 C 222.953125 104.605469 222.980469 104.863281 222.988281 105.128906 C 222.777344 104.960938 222.589844 104.785156 222.402344 104.617188 C 222.207031 104.453125 222.015625 104.289062 221.835938 104.128906 C 221.644531 103.976562 221.460938 103.816406 221.277344 103.664062 C 221.085938 103.519531 220.90625 103.371094 220.722656 103.226562 C 219.984375 102.65625 219.238281 102.15625 218.488281 101.703125 C 216.988281 100.800781 215.453125 100.109375 213.871094 99.652344 C 212.289062 99.195312 210.621094 98.960938 208.871094 98.921875 C 207.996094 98.898438 207.097656 98.9375 206.167969 99.023438 C 205.234375 99.105469 204.28125 99.261719 203.238281 99.429688 Z M 203.238281 99.429688 " fill-opacity="1" fill-rule="nonzero"/><path fill="#6d412a" d="M 198.46875 113.492188 C 198.773438 113.003906 199.226562 112.597656 199.75 112.289062 C 200.269531 111.976562 200.855469 111.765625 201.457031 111.632812 C 202.058594 111.507812 202.671875 111.460938 203.28125 111.476562 C 203.589844 111.480469 203.894531 111.511719 204.195312 111.554688 C 204.5 111.59375 204.789062 111.636719 205.078125 111.699219 C 206.230469 111.941406 207.277344 112.3125 208.242188 112.644531 C 208.726562 112.8125 209.1875 112.96875 209.632812 113.105469 C 209.859375 113.175781 210.074219 113.222656 210.296875 113.285156 C 210.511719 113.351562 210.734375 113.394531 210.957031 113.441406 C 212.734375 113.820312 214.59375 113.945312 216.511719 113.792969 C 217.46875 113.714844 218.441406 113.585938 219.4375 113.375 C 219.6875 113.320312 219.945312 113.273438 220.191406 113.207031 C 220.441406 113.140625 220.703125 113.085938 220.957031 113.011719 C 221.210938 112.9375 221.476562 112.875 221.738281 112.792969 C 221.996094 112.710938 222.261719 112.625 222.546875 112.554688 C 222.402344 112.800781 222.242188 113.035156 222.082031 113.273438 C 221.910156 113.5 221.726562 113.714844 221.535156 113.933594 C 221.148438 114.355469 220.726562 114.746094 220.265625 115.101562 C 219.347656 115.804688 218.308594 116.371094 217.203125 116.777344 C 214.988281 117.597656 212.5 117.757812 210.132812 117.242188 C 209.542969 117.125 208.953125 116.933594 208.390625 116.738281 C 207.832031 116.527344 207.308594 116.289062 206.816406 116.046875 C 205.824219 115.554688 204.949219 115.039062 204.089844 114.589844 C 203.875 114.484375 203.660156 114.363281 203.453125 114.265625 C 203.246094 114.167969 203.03125 114.074219 202.816406 113.980469 C 202.386719 113.808594 201.941406 113.652344 201.480469 113.535156 C 200.558594 113.308594 199.582031 113.21875 198.46875 113.492188 Z M 198.46875 113.492188 " fill-opacity="1" fill-rule="nonzero"/><path fill="#6d412a" d="M 158.902344 137.105469 C 159.398438 138.4375 160.121094 139.644531 161.035156 140.664062 C 161.496094 141.167969 161.980469 141.644531 162.515625 142.0625 C 162.769531 142.28125 163.054688 142.472656 163.324219 142.667969 L 163.746094 142.945312 C 163.886719 143.039062 164.03125 143.125 164.175781 143.203125 C 165.335938 143.886719 166.582031 144.363281 167.867188 144.675781 C 168.515625 144.820312 169.164062 144.945312 169.824219 145.015625 C 170.484375 145.085938 171.144531 145.128906 171.8125 145.125 C 174.476562 145.125 177.136719 144.605469 179.71875 143.78125 C 181.011719 143.363281 182.296875 142.894531 183.574219 142.363281 C 184.855469 141.84375 186.132812 141.285156 187.417969 140.714844 C 188.707031 140.152344 190.007812 139.582031 191.328125 139.03125 C 192.652344 138.492188 194 137.964844 195.382812 137.519531 C 196.765625 137.070312 198.179688 136.679688 199.632812 136.410156 C 200.355469 136.273438 201.089844 136.164062 201.820312 136.082031 C 202.550781 136.003906 203.273438 135.957031 203.992188 135.917969 C 206.859375 135.773438 209.640625 135.851562 212.324219 135.375 C 213.664062 135.144531 214.980469 134.753906 216.226562 134.191406 C 216.851562 133.90625 217.445312 133.558594 218.011719 133.15625 C 218.578125 132.757812 219.101562 132.289062 219.585938 131.765625 C 219.238281 132.386719 218.792969 132.960938 218.300781 133.488281 C 217.796875 134.007812 217.234375 134.480469 216.628906 134.894531 C 215.421875 135.71875 214.066406 136.332031 212.667969 136.769531 C 209.851562 137.652344 206.941406 137.84375 204.195312 138.207031 C 202.816406 138.378906 201.488281 138.601562 200.179688 138.925781 C 198.871094 139.253906 197.574219 139.65625 196.289062 140.136719 C 195.003906 140.605469 193.722656 141.128906 192.449219 141.6875 C 191.167969 142.234375 189.890625 142.8125 188.59375 143.386719 C 187.292969 143.949219 185.984375 144.519531 184.636719 145.039062 C 183.292969 145.554688 181.917969 146.039062 180.507812 146.429688 C 177.6875 147.21875 174.699219 147.652344 171.714844 147.414062 C 170.226562 147.296875 168.742188 147 167.324219 146.511719 C 166.621094 146.253906 165.917969 145.964844 165.261719 145.605469 C 164.605469 145.242188 163.964844 144.851562 163.378906 144.390625 C 163.230469 144.28125 163.085938 144.164062 162.945312 144.042969 C 162.804688 143.921875 162.660156 143.800781 162.523438 143.679688 C 162.257812 143.417969 161.980469 143.175781 161.738281 142.894531 C 161.230469 142.355469 160.78125 141.769531 160.390625 141.148438 C 159.992188 140.535156 159.683594 139.867188 159.417969 139.195312 C 159.167969 138.515625 159 137.8125 158.902344 137.113281 Z M 158.902344 137.105469 " fill-opacity="1" fill-rule="nonzero"/><path fill="#6d412a" d="M 168.210938 145.808594 C 168.414062 146.542969 168.753906 147.210938 169.226562 147.765625 C 169.683594 148.324219 170.242188 148.78125 170.84375 149.140625 C 172.046875 149.839844 173.445312 150.121094 174.832031 150.132812 C 175.53125 150.136719 176.230469 150.09375 176.933594 149.976562 C 177.28125 149.914062 177.632812 149.867188 177.980469 149.800781 L 179.015625 149.5625 L 180.042969 149.261719 C 180.382812 149.164062 180.71875 149.03125 181.054688 148.921875 C 181.394531 148.8125 181.726562 148.660156 182.058594 148.53125 C 182.394531 148.402344 182.726562 148.257812 183.058594 148.109375 C 184.382812 147.527344 185.691406 146.855469 187.007812 146.164062 C 188.324219 145.460938 189.660156 144.75 191.03125 144.050781 C 192.402344 143.347656 193.824219 142.691406 195.308594 142.097656 C 196.800781 141.523438 198.320312 141.0625 199.839844 140.667969 C 205.949219 139.125 212.03125 138.863281 217.796875 137.761719 C 218.160156 137.699219 218.515625 137.613281 218.875 137.542969 C 219.234375 137.476562 219.59375 137.390625 219.949219 137.308594 C 220.304688 137.226562 220.664062 137.140625 221.015625 137.042969 C 221.367188 136.945312 221.726562 136.867188 222.074219 136.757812 C 223.484375 136.359375 224.871094 135.894531 226.214844 135.3125 C 227.5625 134.738281 228.867188 134.058594 230.113281 133.257812 C 231.355469 132.453125 232.539062 131.527344 233.632812 130.457031 C 232.121094 133.128906 229.753906 135.328125 227.105469 137.003906 C 226.773438 137.207031 226.4375 137.414062 226.097656 137.609375 L 225.0625 138.171875 C 224.363281 138.527344 223.652344 138.859375 222.933594 139.167969 C 222.574219 139.328125 222.207031 139.46875 221.84375 139.609375 C 221.480469 139.753906 221.113281 139.886719 220.742188 140.015625 C 220.007812 140.28125 219.265625 140.519531 218.515625 140.734375 C 212.503906 142.464844 206.429688 143.003906 200.792969 144.4375 C 199.382812 144.785156 198 145.199219 196.660156 145.6875 C 195.3125 146.167969 193.980469 146.761719 192.621094 147.367188 C 191.265625 147.972656 189.90625 148.628906 188.496094 149.246094 C 187.09375 149.871094 185.644531 150.457031 184.148438 150.957031 C 182.648438 151.453125 181.089844 151.855469 179.492188 152.066406 L 178.289062 152.183594 C 177.886719 152.207031 177.480469 152.210938 177.078125 152.21875 C 176.273438 152.226562 175.457031 152.164062 174.648438 152.023438 C 173.039062 151.746094 171.425781 151.117188 170.199219 150 C 169.589844 149.449219 169.085938 148.796875 168.734375 148.078125 C 168.386719 147.359375 168.195312 146.570312 168.210938 145.808594 Z M 168.210938 145.808594 " fill-opacity="1" fill-rule="nonzero"/><path fill="#6d412a" d="M 101.75 212.03125 C 101.238281 211.039062 101.199219 209.828125 101.410156 208.707031 C 101.625 207.585938 102.082031 206.507812 102.585938 205.511719 C 103.085938 204.511719 103.617188 203.558594 103.980469 202.589844 C 104.160156 202.109375 104.308594 201.628906 104.386719 201.148438 C 104.425781 200.902344 104.453125 200.6875 104.453125 200.464844 C 104.453125 200.351562 104.453125 200.238281 104.441406 200.125 C 104.4375 200.011719 104.421875 199.898438 104.402344 199.789062 C 104.332031 199.34375 104.203125 198.914062 104.003906 198.539062 C 103.808594 198.167969 103.546875 197.863281 103.261719 197.667969 C 103.125 197.5625 102.972656 197.503906 102.824219 197.445312 C 102.75 197.421875 102.671875 197.410156 102.597656 197.386719 C 102.507812 197.378906 102.429688 197.363281 102.339844 197.359375 C 101.980469 197.34375 101.542969 197.414062 101.050781 197.523438 C 100.554688 197.632812 100.011719 197.789062 99.371094 197.890625 C 99.210938 197.917969 99.035156 197.933594 98.867188 197.953125 C 98.683594 197.960938 98.507812 197.972656 98.316406 197.96875 C 97.929688 197.953125 97.515625 197.910156 97.09375 197.757812 C 96.992188 197.71875 96.882812 197.691406 96.78125 197.640625 C 96.683594 197.59375 96.582031 197.542969 96.484375 197.488281 C 96.289062 197.390625 96.089844 197.25 95.914062 197.101562 C 95.558594 196.800781 95.273438 196.4375 95.0625 196.058594 C 94.640625 195.289062 94.496094 194.464844 94.535156 193.660156 C 94.546875 193.460938 94.570312 193.257812 94.605469 193.054688 C 94.644531 192.851562 94.699219 192.648438 94.753906 192.46875 C 94.871094 192.101562 95.023438 191.753906 95.199219 191.429688 C 95.554688 190.785156 95.988281 190.246094 96.4375 189.773438 C 96.664062 189.539062 96.890625 189.316406 97.125 189.113281 L 97.832031 188.53125 L 98.1875 188.242188 L 98.5625 187.980469 L 99.316406 187.457031 L 100.101562 186.996094 L 100.496094 186.765625 L 100.902344 186.5625 L 101.722656 186.164062 L 102.5625 185.828125 L 102.980469 185.660156 L 103.40625 185.519531 L 104.265625 185.242188 L 105.128906 185.011719 C 105.417969 184.933594 105.707031 184.859375 105.996094 184.804688 C 108.320312 184.308594 110.671875 184.148438 112.984375 184.195312 C 114.144531 184.207031 115.292969 184.308594 116.433594 184.414062 L 117.289062 184.515625 C 117.574219 184.546875 117.859375 184.582031 118.136719 184.632812 L 119.820312 184.90625 C 128.789062 186.429688 137.351562 190.0625 144.699219 195.292969 C 148.375 197.914062 151.75 200.929688 154.71875 204.285156 C 157.679688 207.640625 160.253906 211.328125 162.246094 215.28125 C 156.851562 208.269531 150.339844 202.359375 143.007812 197.84375 C 135.6875 193.320312 127.570312 190.179688 119.167969 188.742188 L 117.589844 188.476562 C 117.328125 188.425781 117.066406 188.394531 116.804688 188.363281 L 116.019531 188.261719 C 114.96875 188.15625 113.921875 188.066406 112.878906 188.035156 C 112.355469 188.003906 111.835938 188.011719 111.3125 188.007812 C 111.050781 188 110.796875 188.023438 110.535156 188.027344 C 110.277344 188.039062 110.019531 188.035156 109.761719 188.058594 C 109.25 188.101562 108.730469 188.125 108.226562 188.203125 C 107.972656 188.234375 107.71875 188.261719 107.464844 188.296875 L 106.714844 188.421875 C 106.460938 188.460938 106.214844 188.515625 105.96875 188.574219 L 105.230469 188.742188 L 104.507812 188.949219 L 104.144531 189.054688 L 103.792969 189.179688 L 103.089844 189.433594 L 102.410156 189.726562 L 102.066406 189.875 L 101.742188 190.046875 L 101.085938 190.386719 L 100.460938 190.777344 L 100.144531 190.972656 L 99.851562 191.195312 L 99.257812 191.632812 C 99.070312 191.785156 98.894531 191.9375 98.726562 192.085938 C 98.394531 192.390625 98.121094 192.707031 97.921875 193.015625 C 97.820312 193.171875 97.742188 193.324219 97.683594 193.476562 C 97.648438 193.554688 97.628906 193.621094 97.609375 193.6875 C 97.589844 193.753906 97.578125 193.824219 97.566406 193.898438 C 97.527344 194.1875 97.574219 194.492188 97.660156 194.703125 C 97.753906 194.921875 97.84375 195.019531 98.054688 195.125 C 98.246094 195.222656 98.578125 195.273438 99.039062 195.230469 C 99.488281 195.195312 100.019531 195.105469 100.609375 195.023438 C 101.199219 194.949219 101.867188 194.878906 102.605469 194.984375 C 102.789062 195.011719 102.980469 195.058594 103.164062 195.101562 C 103.351562 195.167969 103.539062 195.226562 103.714844 195.308594 C 104.070312 195.476562 104.40625 195.6875 104.683594 195.945312 C 105.25 196.449219 105.640625 197.070312 105.890625 197.699219 C 106.140625 198.335938 106.269531 198.988281 106.292969 199.640625 C 106.296875 199.804688 106.300781 199.96875 106.289062 200.128906 C 106.285156 200.292969 106.269531 200.457031 106.246094 200.617188 C 106.207031 200.941406 106.128906 201.265625 106.042969 201.558594 C 105.871094 202.152344 105.628906 202.710938 105.351562 203.230469 C 104.792969 204.265625 104.128906 205.171875 103.511719 206.066406 C 102.890625 206.960938 102.335938 207.863281 101.96875 208.871094 C 101.59375 209.863281 101.449219 210.964844 101.746094 212.039062 Z M 101.75 212.03125 " fill-opacity="1" fill-rule="nonzero"/><path fill="#6d412a" d="M 156.734375 208.597656 C 156.769531 208.171875 156.800781 207.742188 156.84375 207.3125 C 156.910156 206.886719 156.96875 206.457031 157.046875 206.03125 C 157.140625 205.609375 157.226562 205.183594 157.335938 204.765625 C 157.457031 204.347656 157.5625 203.925781 157.703125 203.511719 C 158.234375 201.851562 158.980469 200.257812 159.851562 198.738281 C 161.605469 195.703125 163.898438 192.996094 166.425781 190.585938 C 168.953125 188.175781 171.703125 186.050781 174.441406 183.996094 C 175.808594 182.960938 177.183594 181.960938 178.53125 180.929688 C 179.878906 179.90625 181.21875 178.890625 182.488281 177.796875 C 187.648438 173.507812 192.300781 168.613281 196.371094 163.238281 C 200.449219 157.871094 203.921875 152.023438 206.871094 145.828125 C 205.0625 152.453125 202.066406 158.78125 198.242188 164.566406 C 194.40625 170.351562 189.714844 175.589844 184.355469 180.039062 C 181.679688 182.28125 178.847656 184.261719 176.0625 186.226562 C 173.273438 188.191406 170.519531 190.140625 167.949219 192.289062 C 165.386719 194.433594 163.019531 196.816406 161.050781 199.515625 C 160.0625 200.867188 159.1875 202.300781 158.449219 203.8125 C 158.257812 204.191406 158.101562 204.582031 157.925781 204.964844 C 157.761719 205.355469 157.625 205.753906 157.46875 206.152344 C 157.328125 206.550781 157.203125 206.957031 157.066406 207.363281 L 156.734375 208.601562 Z M 156.734375 208.597656 " fill-opacity="1" fill-rule="nonzero"/><path fill="#6d412a" d="M 139.960938 193.554688 C 140.898438 191.65625 141.953125 189.847656 143.089844 188.074219 C 144.234375 186.304688 145.488281 184.597656 146.871094 182.96875 C 148.257812 181.34375 149.789062 179.816406 151.480469 178.433594 C 152.328125 177.746094 153.21875 177.113281 154.136719 176.503906 C 155.066406 175.914062 156.027344 175.371094 157.019531 174.871094 C 158.023438 174.398438 159.054688 173.972656 160.113281 173.613281 C 161.183594 173.277344 162.269531 172.992188 163.378906 172.800781 C 164.496094 172.628906 165.613281 172.519531 166.753906 172.523438 C 167.890625 172.539062 169.019531 172.652344 170.125 172.859375 C 170.671875 172.980469 171.222656 173.09375 171.757812 173.269531 C 172.296875 173.417969 172.820312 173.613281 173.339844 173.816406 C 174.375 174.246094 175.359375 174.761719 176.277344 175.375 C 177.1875 176.007812 178.03125 176.722656 178.765625 177.523438 C 179.484375 178.339844 180.101562 179.230469 180.566406 180.179688 C 177.394531 177.382812 173.539062 176.101562 169.730469 175.894531 C 165.925781 175.671875 162.1875 176.691406 158.722656 178.367188 C 156.988281 179.210938 155.320312 180.230469 153.714844 181.363281 C 152.910156 181.929688 152.132812 182.539062 151.347656 183.152344 C 150.578125 183.785156 149.808594 184.433594 149.050781 185.101562 C 147.539062 186.441406 146.058594 187.851562 144.5625 189.285156 C 143.816406 190 143.066406 190.722656 142.304688 191.4375 C 141.542969 192.152344 140.773438 192.867188 139.964844 193.554688 Z M 139.960938 193.554688 " fill-opacity="1" fill-rule="nonzero"/><path fill="#6d412a" d="M 198.855469 144.757812 C 195.492188 157.214844 188.15625 168.371094 178.355469 176.277344 C 187.519531 167.640625 193.738281 156.167969 196.015625 144.105469 C 196.164062 143.3125 196.925781 142.789062 197.71875 142.941406 C 198.511719 143.089844 199.035156 143.855469 198.882812 144.648438 C 198.878906 144.683594 198.871094 144.71875 198.859375 144.753906 L 198.859375 144.761719 Z M 198.855469 144.757812 " fill-opacity="1" fill-rule="nonzero"/><path fill="#6d412a" d="M 148.132812 182.15625 C 144.15625 172.148438 141.691406 161.648438 140.789062 151.109375 C 142.972656 161.457031 146.667969 171.390625 151.65625 180.503906 Z M 148.132812 182.15625 " fill-opacity="1" fill-rule="nonzero"/><path fill="#6d412a" d="M 141.277344 191.023438 C 135.859375 179.695312 131.960938 167.738281 129.675781 155.5625 C 133.222656 167.433594 138.300781 178.753906 144.695312 189.164062 Z M 141.277344 191.023438 " fill-opacity="1" fill-rule="nonzero"/><path fill="#6d412a" d="M 293.042969 153.484375 C 295.675781 157.316406 297.589844 161.644531 298.914062 166.140625 C 300.230469 170.644531 300.929688 175.34375 301.019531 180.046875 C 301.105469 184.753906 300.578125 189.476562 299.429688 194.023438 C 298.265625 198.566406 296.511719 202.960938 294.019531 206.886719 C 295.394531 202.453125 296.496094 198.039062 297.179688 193.5625 C 297.875 189.097656 298.179688 184.59375 298.101562 180.101562 C 298.019531 175.605469 297.550781 171.117188 296.691406 166.679688 C 295.84375 162.234375 294.582031 157.859375 293.042969 153.484375 Z M 293.042969 153.484375 " fill-opacity="1" fill-rule="nonzero"/><path fill="#6d412a" d="M 169.726562 108.839844 C 167.578125 109.554688 165.347656 110.28125 163.101562 110.019531 C 160.871094 109.757812 158.808594 108.503906 157.398438 106.757812 C 155.988281 105.007812 155.210938 102.792969 154.835938 100.566406 C 154.355469 102.714844 154.777344 105.046875 156.152344 106.980469 C 155.628906 107.640625 154.871094 108.113281 154.050781 108.292969 C 154.871094 108.546875 155.820312 108.324219 156.441406 107.734375 C 156.128906 108.410156 155.46875 108.917969 154.734375 109.042969 C 155.613281 109.058594 156.5 108.871094 157.296875 108.503906 C 156.777344 109.632812 155.714844 110.496094 154.503906 110.769531 C 155.730469 110.707031 156.9375 110.277344 157.925781 109.546875 C 157.667969 110.121094 157.269531 110.636719 156.773438 111.023438 C 157.34375 110.6875 157.914062 110.355469 158.480469 110.019531 C 157.96875 110.945312 157.128906 111.683594 156.148438 112.070312 C 157.257812 111.71875 158.296875 111.160156 159.203125 110.4375 C 159.140625 110.945312 158.882812 111.425781 158.492188 111.757812 C 158.894531 111.371094 159.296875 110.988281 159.699219 110.605469 C 159.457031 111.574219 158.734375 112.410156 157.8125 112.792969 C 158.914062 112.574219 159.929688 111.933594 160.601562 111.03125 C 160.398438 111.9375 159.820312 112.75 159.035156 113.246094 C 160.066406 112.894531 160.980469 112.207031 161.605469 111.3125 C 161.492188 112.296875 160.976562 113.226562 160.207031 113.847656 C 161.152344 113.429688 161.96875 112.722656 162.519531 111.847656 C 162.472656 112.496094 162.246094 113.128906 161.867188 113.652344 C 162.375 113.132812 162.808594 112.539062 163.148438 111.894531 C 163.3125 112.933594 162.816406 114.046875 161.929688 114.617188 C 162.855469 113.960938 163.644531 113.105469 164.21875 112.125 C 164.285156 112.632812 164.203125 113.164062 163.988281 113.632812 C 164.398438 113.203125 164.691406 112.660156 164.820312 112.082031 C 164.871094 112.574219 164.75 113.085938 164.476562 113.5 C 164.871094 113.039062 165.183594 112.507812 165.390625 111.941406 C 165.664062 112.671875 165.507812 113.546875 164.996094 114.140625 C 165.773438 113.570312 166.304688 112.667969 166.425781 111.710938 C 166.71875 112.183594 166.757812 112.800781 166.53125 113.308594 C 166.9375 112.769531 167.128906 112.074219 167.058594 111.402344 C 167.449219 111.585938 167.664062 112.082031 167.535156 112.496094 C 167.574219 112 167.617188 111.507812 167.65625 111.011719 C 167.898438 111.316406 168.050781 111.691406 168.097656 112.078125 C 168.117188 111.679688 168.136719 111.285156 168.152344 110.890625 C 168.601562 111.605469 168.71875 112.515625 168.472656 113.320312 C 168.917969 112.488281 168.910156 111.429688 168.449219 110.609375 C 168.984375 111.109375 169.28125 111.855469 169.246094 112.589844 C 169.457031 111.816406 169.417969 110.972656 169.136719 110.222656 C 169.539062 110.546875 169.738281 111.109375 169.632812 111.617188 C 169.8125 111.011719 169.800781 110.351562 169.601562 109.75 C 170 109.976562 170.257812 110.425781 170.253906 110.878906 C 170.167969 110.667969 170.164062 110.425781 170.242188 110.210938 C 170.425781 110.289062 170.53125 110.515625 170.472656 110.703125 C 170.515625 109.835938 170.054688 108.957031 169.730469 108.839844 Z M 169.726562 108.839844 " fill-opacity="1" fill-rule="nonzero"/><path fill="#6d412a" d="M 157.085938 91.460938 C 160.21875 93.691406 163.886719 95.027344 167.351562 96.691406 C 170.820312 98.359375 174.246094 100.496094 176.261719 103.773438 C 176.933594 102.402344 176.601562 100.6875 175.734375 99.425781 C 174.867188 98.164062 173.539062 97.289062 172.167969 96.605469 C 167.277344 94.171875 161.496094 93.796875 157.085938 91.457031 Z M 157.085938 91.460938 " fill-opacity="1" fill-rule="nonzero"/><path fill="#6d412a" d="M 155.816406 127.480469 C 155.574219 126.78125 156.097656 125.984375 156.796875 125.738281 C 157.496094 125.496094 158.28125 125.699219 158.925781 126.058594 C 159.574219 126.421875 160.117188 126.933594 160.710938 127.375 C 162.414062 128.632812 164.554688 129.285156 166.667969 129.1875 C 167.597656 129.148438 168.628906 128.996094 169.367188 129.558594 C 170.042969 130.078125 170.21875 131.039062 170.128906 131.886719 C 169.988281 133.277344 169.300781 134.570312 168.375 135.617188 C 167.449219 136.664062 166.300781 137.484375 165.113281 138.222656 C 163.792969 139.042969 162.269531 139.800781 160.742188 139.496094 C 159.179688 139.1875 158.050781 137.859375 157.128906 136.5625 C 155.746094 134.605469 154.507812 132.425781 154.320312 130.035156 C 154.128906 127.644531 155.242188 125.011719 157.445312 124.066406 C 156.351562 125.15625 155.734375 126.710938 155.816406 127.480469 Z M 155.816406 127.480469 " fill-opacity="1" fill-rule="nonzero"/><path fill="#6d412a" d="M 263.535156 211.554688 C 264.304688 211.660156 265.070312 211.636719 265.808594 211.480469 C 266.546875 211.339844 267.257812 211.09375 267.945312 210.796875 C 268.632812 210.492188 269.300781 210.144531 269.953125 209.761719 C 270.601562 209.382812 271.238281 208.984375 271.84375 208.542969 C 274.289062 206.804688 276.421875 204.675781 278.351562 202.371094 C 280.28125 200.0625 282.035156 197.582031 283.8125 195.070312 C 284.25 194.4375 284.703125 193.8125 285.15625 193.183594 C 285.382812 192.871094 285.628906 192.527344 285.929688 192.171875 C 286.230469 191.824219 286.59375 191.457031 287.050781 191.144531 C 287.164062 191.066406 287.285156 190.992188 287.410156 190.921875 L 287.605469 190.820312 L 287.824219 190.722656 C 288.121094 190.601562 288.421875 190.523438 288.734375 190.484375 C 289.347656 190.402344 290.007812 190.457031 290.671875 190.765625 C 291 190.917969 291.328125 191.144531 291.59375 191.441406 C 291.859375 191.742188 292.054688 192.085938 292.171875 192.425781 C 292.410156 193.117188 292.386719 193.707031 292.34375 194.199219 C 292.320312 194.445312 292.28125 194.667969 292.246094 194.875 C 292.207031 195.082031 292.167969 195.289062 292.121094 195.496094 C 292.03125 195.910156 291.925781 196.316406 291.808594 196.714844 C 291.570312 197.515625 291.289062 198.289062 290.976562 199.039062 C 290.816406 199.410156 290.652344 199.78125 290.476562 200.140625 L 289.933594 201.214844 L 289.664062 201.753906 C 289.570312 201.933594 289.464844 202.101562 289.367188 202.277344 L 288.761719 203.316406 C 288.566406 203.667969 288.324219 203.988281 288.105469 204.324219 L 287.4375 205.320312 L 286.710938 206.277344 C 286.46875 206.589844 286.230469 206.914062 285.964844 207.214844 C 285.4375 207.8125 284.941406 208.4375 284.371094 209 L 283.535156 209.851562 C 283.246094 210.128906 282.949219 210.394531 282.660156 210.664062 C 277.972656 214.957031 272.050781 217.863281 265.917969 218.765625 C 267.367188 218.214844 268.796875 217.660156 270.164062 216.972656 L 271.1875 216.460938 C 271.523438 216.285156 271.851562 216.089844 272.183594 215.90625 C 272.507812 215.714844 272.851562 215.550781 273.167969 215.339844 L 274.128906 214.734375 C 276.679688 213.113281 279 211.175781 281.058594 209.019531 C 283.109375 206.855469 284.933594 204.488281 286.378906 201.90625 L 286.90625 200.933594 C 286.992188 200.769531 287.089844 200.613281 287.167969 200.449219 L 287.402344 199.949219 L 287.878906 198.949219 C 288.035156 198.613281 288.171875 198.273438 288.308594 197.9375 C 288.582031 197.261719 288.824219 196.582031 289.019531 195.902344 C 289.117188 195.5625 289.203125 195.222656 289.273438 194.882812 C 289.308594 194.710938 289.34375 194.539062 289.371094 194.371094 C 289.402344 194.195312 289.425781 194.039062 289.4375 193.902344 C 289.46875 193.628906 289.445312 193.433594 289.425781 193.390625 C 289.421875 193.367188 289.414062 193.371094 289.425781 193.382812 C 289.4375 193.390625 289.441406 193.394531 289.421875 193.382812 C 289.386719 193.363281 289.25 193.328125 289.105469 193.351562 C 288.945312 193.371094 288.855469 193.402344 288.65625 193.527344 C 288.289062 193.757812 287.878906 194.246094 287.421875 194.859375 L 286.03125 196.699219 C 284.164062 199.15625 282.238281 201.628906 280.042969 203.898438 C 277.847656 206.164062 275.382812 208.230469 272.589844 209.75 C 271.894531 210.132812 271.179688 210.476562 270.445312 210.78125 C 269.714844 211.082031 268.972656 211.351562 268.203125 211.550781 C 267.433594 211.75 266.644531 211.890625 265.847656 211.910156 C 265.054688 211.925781 264.257812 211.820312 263.53125 211.550781 Z M 263.535156 211.554688 " fill-opacity="1" fill-rule="nonzero"/><path fill="#6d412a" d="M 288.019531 201.71875 C 289.035156 204.613281 289.089844 207.855469 288.414062 210.9375 C 287.722656 214.019531 286.265625 216.972656 284.164062 219.40625 C 282.0625 221.84375 279.355469 223.714844 276.402344 224.84375 C 273.453125 225.960938 270.234375 226.375 267.222656 225.785156 C 270.207031 225.140625 272.949219 224.15625 275.4375 222.757812 C 277.921875 221.371094 280.136719 219.597656 281.957031 217.496094 C 283.773438 215.394531 285.207031 212.945312 286.21875 210.285156 C 287.242188 207.621094 287.816406 204.761719 288.015625 201.714844 Z M 288.019531 201.71875 " fill-opacity="1" fill-rule="nonzero"/><path fill="#6d412a" d="M 282.789062 218.527344 C 284.566406 217.203125 286.101562 215.664062 287.328125 213.9375 C 287.632812 213.507812 287.925781 213.070312 288.1875 212.617188 C 288.324219 212.390625 288.449219 212.160156 288.578125 211.933594 C 288.703125 211.703125 288.832031 211.453125 288.984375 211.191406 C 289.289062 210.675781 289.660156 210.101562 290.328125 209.632812 C 290.65625 209.410156 291.019531 209.238281 291.433594 209.136719 C 291.84375 209.035156 292.324219 209.019531 292.808594 209.160156 C 293.300781 209.300781 293.734375 209.597656 294.058594 209.984375 C 294.382812 210.375 294.558594 210.820312 294.652344 211.222656 C 294.828125 212.03125 294.75 212.722656 294.632812 213.375 C 294.566406 213.722656 294.484375 213.972656 294.414062 214.265625 C 294.339844 214.546875 294.265625 214.832031 294.167969 215.109375 L 293.882812 215.945312 L 293.558594 216.761719 C 292.652344 218.925781 291.371094 220.917969 289.847656 222.671875 C 289.660156 222.890625 289.464844 223.109375 289.261719 223.316406 C 289.058594 223.523438 288.863281 223.738281 288.65625 223.945312 C 288.238281 224.34375 287.824219 224.753906 287.382812 225.125 C 286.953125 225.511719 286.488281 225.859375 286.039062 226.21875 C 285.566406 226.554688 285.109375 226.910156 284.621094 227.214844 C 284.140625 227.535156 283.644531 227.824219 283.148438 228.117188 C 282.652344 228.394531 282.164062 228.664062 281.65625 228.917969 C 281.152344 229.175781 280.632812 229.421875 280.113281 229.65625 L 279.316406 229.988281 C 279.050781 230.09375 278.777344 230.191406 278.507812 230.292969 C 277.417969 230.679688 276.296875 230.976562 275.171875 231.179688 C 274.046875 231.390625 272.921875 231.488281 271.804688 231.554688 C 269.566406 231.664062 267.355469 231.597656 265.148438 231.390625 C 267.324219 230.960938 269.496094 230.605469 271.613281 230.136719 C 273.730469 229.675781 275.757812 229.066406 277.636719 228.171875 C 278.582031 227.734375 279.496094 227.214844 280.40625 226.667969 C 280.859375 226.398438 281.3125 226.101562 281.761719 225.820312 C 282.195312 225.53125 282.632812 225.25 283.050781 224.933594 C 283.476562 224.632812 283.878906 224.304688 284.292969 223.992188 C 284.6875 223.652344 285.09375 223.328125 285.46875 222.96875 C 285.859375 222.628906 286.222656 222.261719 286.59375 221.898438 C 286.777344 221.714844 286.949219 221.523438 287.125 221.335938 L 287.390625 221.050781 L 287.640625 220.757812 C 288.332031 219.988281 288.945312 219.160156 289.511719 218.304688 C 290.097656 217.460938 290.582031 216.554688 291.03125 215.636719 L 291.351562 214.941406 L 291.632812 214.230469 C 291.734375 213.992188 291.808594 213.75 291.894531 213.507812 C 291.972656 213.273438 292.070312 213.003906 292.121094 212.8125 C 292.242188 212.398438 292.285156 211.972656 292.253906 211.699219 C 292.238281 211.5625 292.210938 211.484375 292.191406 211.445312 C 292.175781 211.40625 292.148438 211.363281 292.113281 211.339844 C 292.078125 211.3125 291.988281 211.292969 291.863281 211.300781 C 291.738281 211.308594 291.589844 211.351562 291.453125 211.417969 C 291.324219 211.480469 291.171875 211.59375 291.023438 211.738281 C 290.875 211.882812 290.722656 212.054688 290.570312 212.253906 C 290.269531 212.644531 289.929688 213.144531 289.5625 213.585938 C 289.199219 214.03125 288.816406 214.460938 288.410156 214.867188 C 286.792969 216.480469 284.867188 217.761719 282.785156 218.53125 Z M 282.789062 218.527344 " fill-opacity="1" fill-rule="nonzero"/><path fill="#6d412a" d="M 94.390625 216.742188 C 95.605469 218.617188 96.800781 220.503906 98.027344 222.367188 C 99.246094 224.238281 100.480469 226.097656 101.75 227.925781 C 104.285156 231.582031 106.925781 235.160156 109.832031 238.488281 C 112.714844 241.828125 115.84375 244.945312 119.296875 247.605469 C 121.023438 248.929688 122.816406 250.160156 124.691406 251.242188 C 126.5625 252.328125 128.511719 253.261719 130.511719 254.050781 C 131.011719 254.238281 131.523438 254.414062 132.027344 254.59375 C 132.28125 254.683594 132.53125 254.78125 132.789062 254.863281 L 133.5625 255.089844 L 134.332031 255.320312 C 134.59375 255.394531 134.847656 255.476562 135.109375 255.53125 L 136.679688 255.910156 C 136.941406 255.976562 137.207031 256.023438 137.472656 256.070312 L 139.058594 256.375 C 139.324219 256.421875 139.59375 256.453125 139.859375 256.492188 C 140.394531 256.566406 140.925781 256.652344 141.460938 256.71875 L 143.074219 256.875 C 145.230469 257.046875 147.394531 257.128906 149.570312 257.066406 L 150.382812 257.050781 L 151.199219 257.011719 C 151.742188 256.980469 152.285156 256.964844 152.828125 256.921875 C 153.914062 256.832031 155 256.753906 156.085938 256.621094 C 157.171875 256.515625 158.25 256.34375 159.335938 256.203125 C 160.417969 256.027344 161.496094 255.875 162.574219 255.667969 C 163.113281 255.566406 163.652344 255.476562 164.191406 255.367188 L 165.804688 255.039062 C 166.878906 254.804688 167.941406 254.539062 169.011719 254.292969 C 169.542969 254.164062 170.082031 254.054688 170.613281 253.910156 L 172.203125 253.480469 C 173.265625 253.1875 174.332031 252.925781 175.382812 252.59375 L 178.550781 251.636719 L 181.699219 250.601562 C 185.894531 249.203125 190.066406 247.699219 194.234375 246.125 L 200.496094 243.777344 C 202.585938 242.988281 204.679688 242.203125 206.785156 241.4375 C 215.195312 238.375 223.769531 235.507812 232.65625 233.726562 C 233.210938 233.605469 233.753906 233.5 234.296875 233.394531 L 235.925781 233.070312 L 239.191406 232.386719 C 241.371094 231.925781 243.59375 231.453125 245.839844 231.125 C 248.082031 230.777344 250.335938 230.550781 252.578125 230.371094 C 253.132812 230.324219 253.710938 230.285156 254.289062 230.257812 C 254.863281 230.234375 255.433594 230.222656 256.003906 230.21875 C 257.140625 230.214844 258.269531 230.238281 259.390625 230.285156 C 261.628906 230.375 263.847656 230.5 266.054688 230.511719 C 268.265625 230.535156 270.46875 230.433594 272.648438 230.164062 C 273.738281 230.019531 274.820312 229.820312 275.890625 229.566406 C 276.957031 229.300781 278.007812 228.96875 279.039062 228.578125 C 280.070312 228.1875 281.070312 227.710938 282.042969 227.179688 L 282.761719 226.757812 C 283.003906 226.621094 283.230469 226.460938 283.464844 226.3125 C 283.941406 226.019531 284.378906 225.675781 284.839844 225.355469 C 284.007812 226.101562 283.136719 226.8125 282.203125 227.4375 C 281.265625 228.054688 280.289062 228.628906 279.269531 229.117188 C 278.25 229.601562 277.195312 230.015625 276.117188 230.371094 C 275.035156 230.710938 273.9375 230.996094 272.824219 231.226562 C 268.371094 232.136719 263.804688 232.109375 259.367188 232.195312 C 258.257812 232.21875 257.152344 232.234375 256.058594 232.292969 C 255.511719 232.320312 254.96875 232.359375 254.429688 232.40625 C 253.894531 232.457031 253.363281 232.519531 252.808594 232.589844 C 250.609375 232.871094 248.429688 233.195312 246.28125 233.632812 C 244.128906 234.066406 241.996094 234.589844 239.828125 235.136719 L 236.566406 235.945312 C 236.019531 236.074219 235.472656 236.210938 234.925781 236.332031 C 234.378906 236.457031 233.828125 236.585938 233.296875 236.71875 L 230.089844 237.507812 C 229.027344 237.789062 227.96875 238.105469 226.90625 238.402344 C 226.378906 238.558594 225.84375 238.691406 225.316406 238.859375 L 223.738281 239.355469 C 222.683594 239.691406 221.625 239.996094 220.582031 240.367188 L 217.441406 241.4375 L 214.3125 242.558594 C 213.265625 242.925781 212.230469 243.324219 211.191406 243.714844 C 210.148438 244.105469 209.109375 244.488281 208.074219 244.894531 L 195.589844 249.714844 C 191.414062 251.316406 187.191406 252.851562 182.925781 254.289062 C 174.382812 257.128906 165.539062 259.410156 156.457031 260.28125 C 155.324219 260.398438 154.183594 260.464844 153.042969 260.535156 C 152.472656 260.570312 151.902344 260.578125 151.332031 260.597656 L 150.472656 260.628906 L 149.613281 260.628906 C 147.324219 260.664062 145.023438 260.511719 142.738281 260.277344 L 141.023438 260.066406 C 140.453125 259.980469 139.886719 259.878906 139.316406 259.785156 C 139.035156 259.738281 138.75 259.695312 138.464844 259.640625 L 137.621094 259.457031 C 137.054688 259.328125 136.488281 259.226562 135.929688 259.070312 L 134.257812 258.617188 C 133.976562 258.546875 133.703125 258.449219 133.429688 258.363281 L 132.605469 258.089844 L 131.78125 257.820312 C 131.507812 257.722656 131.242188 257.613281 130.972656 257.507812 C 130.433594 257.296875 129.890625 257.089844 129.355469 256.871094 C 125.097656 255.050781 121.175781 252.539062 117.699219 249.578125 C 114.214844 246.613281 111.132812 243.25 108.363281 239.691406 C 106.984375 237.90625 105.679688 236.070312 104.429688 234.199219 C 103.183594 232.332031 101.984375 230.4375 100.847656 228.503906 C 99.707031 226.578125 98.601562 224.632812 97.527344 222.671875 C 96.464844 220.703125 95.414062 218.734375 94.394531 216.746094 Z M 94.390625 216.742188 " fill-opacity="1" fill-rule="nonzero"/><g fill="#447544" fill-opacity="1"><g transform="translate(80.795309, 303.759618)"><g><path d="M 4.765625 0 L 4.765625 -39.484375 L 19.765625 -39.484375 C 24.128906 -39.484375 27.84375 -38.71875 30.90625 -37.1875 C 33.96875 -35.65625 36.300781 -33.421875 37.90625 -30.484375 C 39.507812 -27.554688 40.3125 -23.984375 40.3125 -19.765625 C 40.3125 -15.546875 39.507812 -11.960938 37.90625 -9.015625 C 36.300781 -6.066406 33.96875 -3.828125 30.90625 -2.296875 C 27.84375 -0.765625 24.128906 0 19.765625 0 Z M 12.15625 -6.15625 L 19.3125 -6.15625 C 23.71875 -6.15625 27.039062 -7.285156 29.28125 -9.546875 C 31.519531 -11.804688 32.640625 -15.210938 32.640625 -19.765625 C 32.640625 -24.316406 31.519531 -27.710938 29.28125 -29.953125 C 27.039062 -32.191406 23.71875 -33.3125 19.3125 -33.3125 L 12.15625 -33.3125 Z M 12.15625 -6.15625 "/></g></g></g><g fill="#447544" fill-opacity="1"><g transform="translate(127.661185, 303.759618)"><g><path d="M 16.796875 0.5625 C 13.890625 0.5625 11.359375 -0.0234375 9.203125 -1.203125 C 7.054688 -2.378906 5.394531 -4.050781 4.21875 -6.21875 C 3.050781 -8.382812 2.46875 -10.921875 2.46875 -13.828125 C 2.46875 -16.773438 3.050781 -19.320312 4.21875 -21.46875 C 5.394531 -23.625 7.054688 -25.285156 9.203125 -26.453125 C 11.359375 -27.628906 13.890625 -28.21875 16.796875 -28.21875 C 19.742188 -28.21875 22.28125 -27.628906 24.40625 -26.453125 C 26.539062 -25.285156 28.195312 -23.617188 29.375 -21.453125 C 30.550781 -19.285156 31.140625 -16.742188 31.140625 -13.828125 C 31.140625 -10.921875 30.550781 -8.382812 29.375 -6.21875 C 28.195312 -4.050781 26.539062 -2.378906 24.40625 -1.203125 C 22.28125 -0.0234375 19.742188 0.5625 16.796875 0.5625 Z M 16.796875 -5.15625 C 19.003906 -5.15625 20.738281 -5.910156 22 -7.421875 C 23.269531 -8.929688 23.90625 -11.085938 23.90625 -13.890625 C 23.90625 -16.691406 23.269531 -18.828125 22 -20.296875 C 20.738281 -21.773438 19.003906 -22.515625 16.796875 -22.515625 C 14.628906 -22.515625 12.898438 -21.773438 11.609375 -20.296875 C 10.328125 -18.828125 9.6875 -16.691406 9.6875 -13.890625 C 9.6875 -11.085938 10.328125 -8.929688 11.609375 -7.421875 C 12.898438 -5.910156 14.628906 -5.15625 16.796875 -5.15625 Z M 16.796875 -5.15625 "/></g></g></g><g fill="#447544" fill-opacity="1"><g transform="translate(164.448468, 303.759618)"><g><path d="M 16.6875 10.640625 C 14.300781 10.640625 11.992188 10.347656 9.765625 9.765625 C 7.546875 9.191406 5.613281 8.328125 3.96875 7.171875 L 5.984375 1.90625 C 6.992188 2.539062 8.078125 3.085938 9.234375 3.546875 C 10.390625 4.015625 11.566406 4.359375 12.765625 4.578125 C 13.960938 4.804688 15.140625 4.921875 16.296875 4.921875 C 18.941406 4.921875 20.945312 4.3125 22.3125 3.09375 C 23.675781 1.882812 24.359375 0.0664062 24.359375 -2.359375 L 24.359375 -6.890625 L 24.53125 -6.890625 C 23.894531 -5.097656 22.71875 -3.640625 21 -2.515625 C 19.28125 -1.398438 17.300781 -0.84375 15.0625 -0.84375 C 12.519531 -0.84375 10.304688 -1.410156 8.421875 -2.546875 C 6.535156 -3.679688 5.070312 -5.273438 4.03125 -7.328125 C 2.988281 -9.390625 2.46875 -11.800781 2.46875 -14.5625 C 2.46875 -17.28125 2.988281 -19.664062 4.03125 -21.71875 C 5.070312 -23.78125 6.535156 -25.378906 8.421875 -26.515625 C 10.304688 -27.648438 12.519531 -28.21875 15.0625 -28.21875 C 17.34375 -28.21875 19.335938 -27.65625 21.046875 -26.53125 C 22.765625 -25.414062 23.925781 -23.925781 24.53125 -22.0625 L 24.359375 -22.0625 L 24.359375 -27.65625 L 31.296875 -27.65625 L 31.296875 -3.078125 C 31.296875 -0.128906 30.726562 2.359375 29.59375 4.390625 C 28.457031 6.429688 26.804688 7.984375 24.640625 9.046875 C 22.472656 10.109375 19.820312 10.640625 16.6875 10.640625 Z M 16.96875 -6.390625 C 19.164062 -6.390625 20.910156 -7.125 22.203125 -8.59375 C 23.492188 -10.070312 24.140625 -12.0625 24.140625 -14.5625 C 24.140625 -17.0625 23.492188 -19.03125 22.203125 -20.46875 C 20.910156 -21.90625 19.164062 -22.625 16.96875 -22.625 C 14.726562 -22.625 12.960938 -21.90625 11.671875 -20.46875 C 10.390625 -19.03125 9.75 -17.0625 9.75 -14.5625 C 9.75 -12.0625 10.390625 -10.070312 11.671875 -8.59375 C 12.960938 -7.125 14.726562 -6.390625 16.96875 -6.390625 Z M 16.96875 -6.390625 "/></g></g></g><g fill="#447544" fill-opacity="1"><g transform="translate(202.915514, 303.759618)"><g><path d="M 18.09375 0.5625 C 14.800781 0.5625 11.988281 -0.015625 9.65625 -1.171875 C 7.320312 -2.328125 5.539062 -3.988281 4.3125 -6.15625 C 3.082031 -8.320312 2.46875 -10.878906 2.46875 -13.828125 C 2.46875 -16.628906 3.050781 -19.101562 4.21875 -21.25 C 5.394531 -23.394531 7.046875 -25.09375 9.171875 -26.34375 C 11.304688 -27.59375 13.789062 -28.21875 16.625 -28.21875 C 19.28125 -28.21875 21.578125 -27.648438 23.515625 -26.515625 C 25.460938 -25.378906 26.96875 -23.753906 28.03125 -21.640625 C 29.09375 -19.535156 29.625 -17.023438 29.625 -14.109375 L 29.625 -11.921875 L 8.28125 -11.921875 L 8.28125 -16.234375 L 24.46875 -16.234375 L 23.578125 -15.34375 C 23.578125 -17.914062 22.988281 -19.863281 21.8125 -21.1875 C 20.632812 -22.519531 18.960938 -23.1875 16.796875 -23.1875 C 15.265625 -23.1875 13.9375 -22.835938 12.8125 -22.140625 C 11.695312 -21.453125 10.832031 -20.472656 10.21875 -19.203125 C 9.601562 -17.929688 9.296875 -16.382812 9.296875 -14.5625 L 9.296875 -14 C 9.296875 -11.945312 9.628906 -10.253906 10.296875 -8.921875 C 10.972656 -7.597656 11.984375 -6.617188 13.328125 -5.984375 C 14.671875 -5.359375 16.3125 -5.046875 18.25 -5.046875 C 19.75 -5.046875 21.269531 -5.25 22.8125 -5.65625 C 24.363281 -6.0625 25.773438 -6.753906 27.046875 -7.734375 L 29.0625 -2.796875 C 27.675781 -1.710938 25.984375 -0.878906 23.984375 -0.296875 C 21.992188 0.273438 20.03125 0.5625 18.09375 0.5625 Z M 18.09375 0.5625 "/></g></g></g><g fill="#447544" fill-opacity="1"><g transform="translate(238.079028, 303.759618)"><g><path d="M 13.609375 0.5625 C 10.398438 0.5625 7.988281 -0.300781 6.375 -2.03125 C 4.769531 -3.769531 3.96875 -6.300781 3.96875 -9.625 L 3.96875 -39.484375 L 11.25 -39.484375 L 11.25 -10.078125 C 11.25 -9.035156 11.398438 -8.160156 11.703125 -7.453125 C 12.003906 -6.742188 12.453125 -6.203125 13.046875 -5.828125 C 13.640625 -5.453125 14.367188 -5.265625 15.234375 -5.265625 C 15.710938 -5.265625 16.175781 -5.289062 16.625 -5.34375 C 17.070312 -5.40625 17.519531 -5.488281 17.96875 -5.59375 L 18.09375 -0.0625 C 17.34375 0.125 16.613281 0.273438 15.90625 0.390625 C 15.195312 0.503906 14.429688 0.5625 13.609375 0.5625 Z M 13.609375 0.5625 "/></g></g></g><g fill="#447544" fill-opacity="1"><g transform="translate(259.972387, 303.759618)"><g><path d="M 3.46875 -33.375 L 3.46875 -40.546875 L 11.703125 -40.546875 L 11.703125 -33.375 Z M 3.96875 0 L 3.96875 -27.65625 L 11.25 -27.65625 L 11.25 0 Z M 3.96875 0 "/></g></g></g><g fill="#447544" fill-opacity="1"><g transform="translate(278.396859, 303.759618)"><g/></g></g><g fill="#cc4e00" fill-opacity="1"><g transform="translate(102.047284, 331.89323)"><g><path d="M 1.71875 0 L 1.71875 -12.796875 L 9.84375 -12.796875 L 9.84375 -11.46875 L 3.28125 -11.46875 L 3.28125 -7.09375 L 9.453125 -7.09375 L 9.453125 -5.78125 L 3.28125 -5.78125 L 3.28125 0 Z M 1.71875 0 "/></g></g></g><g fill="#cc4e00" fill-opacity="1"><g transform="translate(111.14085, 331.89323)"><g><path d="M 1.3125 -11.078125 L 1.3125 -12.796875 L 3.203125 -12.796875 L 3.203125 -11.078125 Z M 1.484375 0 L 1.484375 -8.890625 L 3.03125 -8.890625 L 3.03125 0 Z M 1.484375 0 "/></g></g></g><g fill="#cc4e00" fill-opacity="1"><g transform="translate(114.316769, 331.89323)"><g><path d="M 1.484375 0 L 1.484375 -8.890625 L 2.953125 -8.890625 L 2.953125 -6.9375 L 2.875 -6.9375 C 3.132812 -7.625 3.554688 -8.148438 4.140625 -8.515625 C 4.722656 -8.878906 5.382812 -9.0625 6.125 -9.0625 C 6.84375 -9.0625 7.441406 -8.929688 7.921875 -8.671875 C 8.398438 -8.421875 8.757812 -8.03125 9 -7.5 C 9.25 -6.976562 9.375 -6.316406 9.375 -5.515625 L 9.375 0 L 7.828125 0 L 7.828125 -5.421875 C 7.828125 -5.929688 7.753906 -6.363281 7.609375 -6.71875 C 7.472656 -7.070312 7.253906 -7.332031 6.953125 -7.5 C 6.648438 -7.675781 6.257812 -7.765625 5.78125 -7.765625 C 5.226562 -7.765625 4.742188 -7.644531 4.328125 -7.40625 C 3.921875 -7.175781 3.601562 -6.851562 3.375 -6.4375 C 3.144531 -6.03125 3.03125 -5.5625 3.03125 -5.03125 L 3.03125 0 Z M 1.484375 0 "/></g></g></g><g fill="#cc4e00" fill-opacity="1"><g transform="translate(123.773376, 331.89323)"><g><path d="M 4.96875 0.15625 C 4.164062 0.15625 3.457031 -0.03125 2.84375 -0.40625 C 2.238281 -0.789062 1.773438 -1.328125 1.453125 -2.015625 C 1.128906 -2.710938 0.96875 -3.523438 0.96875 -4.453125 C 0.96875 -5.390625 1.128906 -6.203125 1.453125 -6.890625 C 1.773438 -7.578125 2.234375 -8.109375 2.828125 -8.484375 C 3.429688 -8.867188 4.140625 -9.0625 4.953125 -9.0625 C 5.742188 -9.0625 6.421875 -8.867188 6.984375 -8.484375 C 7.546875 -8.109375 7.9375 -7.59375 8.15625 -6.9375 L 8.046875 -6.9375 L 8.046875 -12.796875 L 9.59375 -12.796875 L 9.59375 0 L 8.140625 0 L 8.140625 -2.03125 L 8.203125 -2.03125 C 7.984375 -1.351562 7.585938 -0.816406 7.015625 -0.421875 C 6.441406 -0.0351562 5.757812 0.15625 4.96875 0.15625 Z M 5.28125 -1.09375 C 6.144531 -1.09375 6.828125 -1.390625 7.328125 -1.984375 C 7.828125 -2.578125 8.078125 -3.398438 8.078125 -4.453125 C 8.078125 -5.515625 7.828125 -6.335938 7.328125 -6.921875 C 6.828125 -7.515625 6.148438 -7.8125 5.296875 -7.8125 C 4.441406 -7.8125 3.757812 -7.515625 3.25 -6.921875 C 2.75 -6.335938 2.5 -5.515625 2.5 -4.453125 C 2.5 -3.398438 2.75 -2.578125 3.25 -1.984375 C 3.757812 -1.390625 4.4375 -1.09375 5.28125 -1.09375 Z M 5.28125 -1.09375 "/></g></g></g><g fill="#cc4e00" fill-opacity="1"><g transform="translate(133.502272, 331.89323)"><g/></g></g><g fill="#cc4e00" fill-opacity="1"><g transform="translate(137.004931, 331.89323)"><g><path d="M 2.5625 3.265625 L 4.234375 -0.515625 L 4.234375 0.375 L 0.265625 -8.890625 L 1.9375 -8.890625 L 4.96875 -1.328125 L 4.703125 -1.328125 L 7.75 -8.890625 L 9.375 -8.890625 L 4.171875 3.265625 Z M 2.5625 3.265625 "/></g></g></g><g fill="#cc4e00" fill-opacity="1"><g transform="translate(145.263491, 331.89323)"><g><path d="M 5.28125 0.15625 C 4.394531 0.15625 3.628906 -0.03125 2.984375 -0.40625 C 2.335938 -0.789062 1.835938 -1.328125 1.484375 -2.015625 C 1.140625 -2.703125 0.96875 -3.519531 0.96875 -4.46875 C 0.96875 -5.394531 1.140625 -6.203125 1.484375 -6.890625 C 1.835938 -7.578125 2.335938 -8.109375 2.984375 -8.484375 C 3.628906 -8.867188 4.394531 -9.0625 5.28125 -9.0625 C 6.164062 -9.0625 6.929688 -8.867188 7.578125 -8.484375 C 8.222656 -8.109375 8.722656 -7.578125 9.078125 -6.890625 C 9.429688 -6.203125 9.609375 -5.394531 9.609375 -4.46875 C 9.609375 -3.519531 9.429688 -2.703125 9.078125 -2.015625 C 8.722656 -1.328125 8.222656 -0.789062 7.578125 -0.40625 C 6.929688 -0.03125 6.164062 0.15625 5.28125 0.15625 Z M 5.28125 -1.109375 C 6.144531 -1.109375 6.820312 -1.40625 7.3125 -2 C 7.8125 -2.59375 8.0625 -3.414062 8.0625 -4.46875 C 8.0625 -5.519531 7.8125 -6.332031 7.3125 -6.90625 C 6.820312 -7.488281 6.144531 -7.78125 5.28125 -7.78125 C 4.425781 -7.78125 3.75 -7.488281 3.25 -6.90625 C 2.75 -6.332031 2.5 -5.519531 2.5 -4.46875 C 2.5 -3.414062 2.75 -2.59375 3.25 -2 C 3.757812 -1.40625 4.4375 -1.109375 5.28125 -1.109375 Z M 5.28125 -1.109375 "/></g></g></g><g fill="#cc4e00" fill-opacity="1"><g transform="translate(154.46597, 331.89323)"><g><path d="M 4.734375 0.15625 C 4.015625 0.15625 3.40625 0.0234375 2.90625 -0.234375 C 2.414062 -0.503906 2.050781 -0.898438 1.8125 -1.421875 C 1.570312 -1.953125 1.453125 -2.601562 1.453125 -3.375 L 1.453125 -8.890625 L 3 -8.890625 L 3 -3.4375 C 3 -2.9375 3.066406 -2.515625 3.203125 -2.171875 C 3.335938 -1.828125 3.554688 -1.566406 3.859375 -1.390625 C 4.171875 -1.210938 4.566406 -1.125 5.046875 -1.125 C 5.554688 -1.125 6.003906 -1.242188 6.390625 -1.484375 C 6.785156 -1.734375 7.09375 -2.0625 7.3125 -2.46875 C 7.539062 -2.882812 7.65625 -3.351562 7.65625 -3.875 L 7.65625 -8.890625 L 9.203125 -8.890625 L 9.203125 0 L 7.75 0 L 7.75 -2 L 7.859375 -2 C 7.597656 -1.3125 7.195312 -0.78125 6.65625 -0.40625 C 6.113281 -0.03125 5.472656 0.15625 4.734375 0.15625 Z M 4.734375 0.15625 "/></g></g></g><g fill="#cc4e00" fill-opacity="1"><g transform="translate(163.813664, 331.89323)"><g><path d="M 1.484375 0 L 1.484375 -8.890625 L 2.9375 -8.890625 L 2.9375 -6.828125 L 2.875 -6.828125 C 3.070312 -7.515625 3.429688 -8.039062 3.953125 -8.40625 C 4.484375 -8.78125 5.15625 -9 5.96875 -9.0625 L 6.640625 -9.109375 L 6.796875 -7.734375 L 5.671875 -7.625 C 4.828125 -7.550781 4.175781 -7.28125 3.71875 -6.8125 C 3.269531 -6.351562 3.046875 -5.75 3.046875 -5 L 3.046875 0 Z M 1.484375 0 "/></g></g></g><g fill="#cc4e00" fill-opacity="1"><g transform="translate(169.494603, 331.89323)"><g/></g></g><g fill="#cc4e00" fill-opacity="1"><g transform="translate(172.997261, 331.89323)"><g><path d="M 1.484375 3.265625 L 1.484375 -8.890625 L 2.953125 -8.890625 L 2.953125 -6.875 L 2.875 -6.875 C 3.101562 -7.550781 3.503906 -8.082031 4.078125 -8.46875 C 4.648438 -8.863281 5.332031 -9.0625 6.125 -9.0625 C 6.925781 -9.0625 7.625 -8.867188 8.21875 -8.484375 C 8.820312 -8.109375 9.289062 -7.578125 9.625 -6.890625 C 9.957031 -6.203125 10.125 -5.390625 10.125 -4.453125 C 10.125 -3.523438 9.960938 -2.710938 9.640625 -2.015625 C 9.316406 -1.328125 8.851562 -0.789062 8.25 -0.40625 C 7.65625 -0.03125 6.945312 0.15625 6.125 0.15625 C 5.34375 0.15625 4.671875 -0.0351562 4.109375 -0.421875 C 3.546875 -0.804688 3.148438 -1.316406 2.921875 -1.953125 L 3.03125 -1.953125 L 3.03125 3.265625 Z M 5.796875 -1.09375 C 6.648438 -1.09375 7.320312 -1.390625 7.8125 -1.984375 C 8.3125 -2.578125 8.5625 -3.40625 8.5625 -4.46875 C 8.5625 -5.53125 8.3125 -6.351562 7.8125 -6.9375 C 7.320312 -7.519531 6.648438 -7.8125 5.796875 -7.8125 C 4.941406 -7.8125 4.265625 -7.519531 3.765625 -6.9375 C 3.265625 -6.351562 3.015625 -5.53125 3.015625 -4.46875 C 3.015625 -3.40625 3.265625 -2.578125 3.765625 -1.984375 C 4.265625 -1.390625 4.941406 -1.09375 5.796875 -1.09375 Z M 5.796875 -1.09375 "/></g></g></g><g fill="#cc4e00" fill-opacity="1"><g transform="translate(182.726158, 331.89323)"><g><path d="M 5.640625 0.15625 C 4.671875 0.15625 3.835938 -0.0234375 3.140625 -0.390625 C 2.441406 -0.753906 1.90625 -1.28125 1.53125 -1.96875 C 1.15625 -2.664062 0.96875 -3.492188 0.96875 -4.453125 C 0.96875 -5.359375 1.144531 -6.15625 1.5 -6.84375 C 1.851562 -7.53125 2.359375 -8.070312 3.015625 -8.46875 C 3.671875 -8.863281 4.429688 -9.0625 5.296875 -9.0625 C 6.148438 -9.0625 6.867188 -8.878906 7.453125 -8.515625 C 8.035156 -8.148438 8.484375 -7.632812 8.796875 -6.96875 C 9.117188 -6.3125 9.28125 -5.523438 9.28125 -4.609375 L 9.28125 -4.0625 L 2.125 -4.0625 L 2.125 -5.125 L 8.265625 -5.125 L 7.953125 -4.828125 C 7.953125 -5.796875 7.726562 -6.546875 7.28125 -7.078125 C 6.832031 -7.617188 6.175781 -7.890625 5.3125 -7.890625 C 4.726562 -7.890625 4.21875 -7.753906 3.78125 -7.484375 C 3.351562 -7.210938 3.023438 -6.832031 2.796875 -6.34375 C 2.566406 -5.851562 2.453125 -5.273438 2.453125 -4.609375 L 2.453125 -4.46875 C 2.453125 -3.726562 2.578125 -3.109375 2.828125 -2.609375 C 3.078125 -2.117188 3.441406 -1.742188 3.921875 -1.484375 C 4.398438 -1.222656 4.984375 -1.09375 5.671875 -1.09375 C 6.171875 -1.09375 6.671875 -1.164062 7.171875 -1.3125 C 7.671875 -1.46875 8.144531 -1.726562 8.59375 -2.09375 L 9.109375 -1 C 8.671875 -0.625 8.140625 -0.335938 7.515625 -0.140625 C 6.898438 0.0546875 6.273438 0.15625 5.640625 0.15625 Z M 5.640625 0.15625 "/></g></g></g><g fill="#cc4e00" fill-opacity="1"><g transform="translate(191.529284, 331.89323)"><g><path d="M 1.484375 0 L 1.484375 -8.890625 L 2.9375 -8.890625 L 2.9375 -6.828125 L 2.875 -6.828125 C 3.070312 -7.515625 3.429688 -8.039062 3.953125 -8.40625 C 4.484375 -8.78125 5.15625 -9 5.96875 -9.0625 L 6.640625 -9.109375 L 6.796875 -7.734375 L 5.671875 -7.625 C 4.828125 -7.550781 4.175781 -7.28125 3.71875 -6.8125 C 3.269531 -6.351562 3.046875 -5.75 3.046875 -5 L 3.046875 0 Z M 1.484375 0 "/></g></g></g><g fill="#cc4e00" fill-opacity="1"><g transform="translate(197.210223, 331.89323)"><g><path d="M 2 0 L 2 -7.703125 L 0.21875 -7.703125 L 0.21875 -8.890625 L 2.421875 -8.890625 L 2 -8.5 L 2 -9.125 C 2 -10.300781 2.3125 -11.195312 2.9375 -11.8125 C 3.5625 -12.425781 4.488281 -12.757812 5.71875 -12.8125 L 6.53125 -12.875 L 6.65625 -11.640625 L 5.703125 -11.578125 C 5.242188 -11.554688 4.851562 -11.460938 4.53125 -11.296875 C 4.207031 -11.140625 3.960938 -10.898438 3.796875 -10.578125 C 3.628906 -10.253906 3.546875 -9.832031 3.546875 -9.3125 L 3.546875 -8.671875 L 3.328125 -8.890625 L 6.234375 -8.890625 L 6.234375 -7.703125 L 3.546875 -7.703125 L 3.546875 0 Z M 2 0 "/></g></g></g><g fill="#cc4e00" fill-opacity="1"><g transform="translate(202.401045, 331.89323)"><g><path d="M 5.640625 0.15625 C 4.671875 0.15625 3.835938 -0.0234375 3.140625 -0.390625 C 2.441406 -0.753906 1.90625 -1.28125 1.53125 -1.96875 C 1.15625 -2.664062 0.96875 -3.492188 0.96875 -4.453125 C 0.96875 -5.359375 1.144531 -6.15625 1.5 -6.84375 C 1.851562 -7.53125 2.359375 -8.070312 3.015625 -8.46875 C 3.671875 -8.863281 4.429688 -9.0625 5.296875 -9.0625 C 6.148438 -9.0625 6.867188 -8.878906 7.453125 -8.515625 C 8.035156 -8.148438 8.484375 -7.632812 8.796875 -6.96875 C 9.117188 -6.3125 9.28125 -5.523438 9.28125 -4.609375 L 9.28125 -4.0625 L 2.125 -4.0625 L 2.125 -5.125 L 8.265625 -5.125 L 7.953125 -4.828125 C 7.953125 -5.796875 7.726562 -6.546875 7.28125 -7.078125 C 6.832031 -7.617188 6.175781 -7.890625 5.3125 -7.890625 C 4.726562 -7.890625 4.21875 -7.753906 3.78125 -7.484375 C 3.351562 -7.210938 3.023438 -6.832031 2.796875 -6.34375 C 2.566406 -5.851562 2.453125 -5.273438 2.453125 -4.609375 L 2.453125 -4.46875 C 2.453125 -3.726562 2.578125 -3.109375 2.828125 -2.609375 C 3.078125 -2.117188 3.441406 -1.742188 3.921875 -1.484375 C 4.398438 -1.222656 4.984375 -1.09375 5.671875 -1.09375 C 6.171875 -1.09375 6.671875 -1.164062 7.171875 -1.3125 C 7.671875 -1.46875 8.144531 -1.726562 8.59375 -2.09375 L 9.109375 -1 C 8.671875 -0.625 8.140625 -0.335938 7.515625 -0.140625 C 6.898438 0.0546875 6.273438 0.15625 5.640625 0.15625 Z M 5.640625 0.15625 "/></g></g></g><g fill="#cc4e00" fill-opacity="1"><g transform="translate(211.204172, 331.89323)"><g><path d="M 5.375 0.15625 C 4.46875 0.15625 3.679688 -0.0351562 3.015625 -0.421875 C 2.359375 -0.804688 1.851562 -1.347656 1.5 -2.046875 C 1.144531 -2.742188 0.96875 -3.554688 0.96875 -4.484375 C 0.96875 -5.429688 1.144531 -6.242188 1.5 -6.921875 C 1.851562 -7.609375 2.363281 -8.132812 3.03125 -8.5 C 3.695312 -8.875 4.476562 -9.0625 5.375 -9.0625 C 5.957031 -9.0625 6.519531 -8.957031 7.0625 -8.75 C 7.601562 -8.550781 8.050781 -8.28125 8.40625 -7.9375 L 7.875 -6.796875 C 7.53125 -7.117188 7.144531 -7.359375 6.71875 -7.515625 C 6.289062 -7.679688 5.878906 -7.765625 5.484375 -7.765625 C 4.546875 -7.765625 3.816406 -7.476562 3.296875 -6.90625 C 2.785156 -6.34375 2.53125 -5.53125 2.53125 -4.46875 C 2.53125 -3.425781 2.785156 -2.609375 3.296875 -2.015625 C 3.816406 -1.421875 4.546875 -1.125 5.484375 -1.125 C 5.867188 -1.125 6.269531 -1.203125 6.6875 -1.359375 C 7.113281 -1.523438 7.503906 -1.769531 7.859375 -2.09375 L 8.390625 -0.96875 C 8.035156 -0.613281 7.585938 -0.335938 7.046875 -0.140625 C 6.503906 0.0546875 5.945312 0.15625 5.375 0.15625 Z M 5.375 0.15625 "/></g></g></g><g fill="#cc4e00" fill-opacity="1"><g transform="translate(218.645875, 331.89323)"><g><path d="M 5.15625 0.15625 C 4.09375 0.15625 3.289062 -0.125 2.75 -0.6875 C 2.21875 -1.25 1.953125 -2.050781 1.953125 -3.09375 L 1.953125 -7.65625 L 0.1875 -7.65625 L 0.1875 -8.890625 L 2 -8.890625 L 2 -11.578125 L 3.5 -11.578125 L 3.5 -8.890625 L 6.515625 -8.890625 L 6.515625 -7.65625 L 3.5 -7.65625 L 3.5 -3.234375 C 3.5 -2.546875 3.644531 -2.023438 3.9375 -1.671875 C 4.238281 -1.328125 4.71875 -1.15625 5.375 -1.15625 C 5.59375 -1.15625 5.8125 -1.179688 6.03125 -1.234375 C 6.25 -1.285156 6.445312 -1.347656 6.625 -1.421875 L 6.90625 -0.21875 C 6.695312 -0.101562 6.429688 -0.015625 6.109375 0.046875 C 5.785156 0.117188 5.46875 0.15625 5.15625 0.15625 Z M 5.15625 0.15625 "/></g></g></g><g fill="#cc4e00" fill-opacity="1"><g transform="translate(224.254201, 331.89323)"><g/></g></g><g fill="#cc4e00" fill-opacity="1"><g transform="translate(227.756859, 331.89323)"><g><path d="M 4.96875 0.15625 C 4.164062 0.15625 3.457031 -0.03125 2.84375 -0.40625 C 2.238281 -0.789062 1.773438 -1.328125 1.453125 -2.015625 C 1.128906 -2.710938 0.96875 -3.523438 0.96875 -4.453125 C 0.96875 -5.390625 1.128906 -6.203125 1.453125 -6.890625 C 1.773438 -7.578125 2.234375 -8.109375 2.828125 -8.484375 C 3.429688 -8.867188 4.140625 -9.0625 4.953125 -9.0625 C 5.742188 -9.0625 6.421875 -8.867188 6.984375 -8.484375 C 7.546875 -8.109375 7.9375 -7.59375 8.15625 -6.9375 L 8.046875 -6.9375 L 8.046875 -12.796875 L 9.59375 -12.796875 L 9.59375 0 L 8.140625 0 L 8.140625 -2.03125 L 8.203125 -2.03125 C 7.984375 -1.351562 7.585938 -0.816406 7.015625 -0.421875 C 6.441406 -0.0351562 5.757812 0.15625 4.96875 0.15625 Z M 5.28125 -1.09375 C 6.144531 -1.09375 6.828125 -1.390625 7.328125 -1.984375 C 7.828125 -2.578125 8.078125 -3.398438 8.078125 -4.453125 C 8.078125 -5.515625 7.828125 -6.335938 7.328125 -6.921875 C 6.828125 -7.515625 6.148438 -7.8125 5.296875 -7.8125 C 4.441406 -7.8125 3.757812 -7.515625 3.25 -6.921875 C 2.75 -6.335938 2.5 -5.515625 2.5 -4.453125 C 2.5 -3.398438 2.75 -2.578125 3.25 -1.984375 C 3.757812 -1.390625 4.4375 -1.09375 5.28125 -1.09375 Z M 5.28125 -1.09375 "/></g></g></g><g fill="#cc4e00" fill-opacity="1"><g transform="translate(237.485756, 331.89323)"><g><path d="M 5.28125 0.15625 C 4.394531 0.15625 3.628906 -0.03125 2.984375 -0.40625 C 2.335938 -0.789062 1.835938 -1.328125 1.484375 -2.015625 C 1.140625 -2.703125 0.96875 -3.519531 0.96875 -4.46875 C 0.96875 -5.394531 1.140625 -6.203125 1.484375 -6.890625 C 1.835938 -7.578125 2.335938 -8.109375 2.984375 -8.484375 C 3.628906 -8.867188 4.394531 -9.0625 5.28125 -9.0625 C 6.164062 -9.0625 6.929688 -8.867188 7.578125 -8.484375 C 8.222656 -8.109375 8.722656 -7.578125 9.078125 -6.890625 C 9.429688 -6.203125 9.609375 -5.394531 9.609375 -4.46875 C 9.609375 -3.519531 9.429688 -2.703125 9.078125 -2.015625 C 8.722656 -1.328125 8.222656 -0.789062 7.578125 -0.40625 C 6.929688 -0.03125 6.164062 0.15625 5.28125 0.15625 Z M 5.28125 -1.109375 C 6.144531 -1.109375 6.820312 -1.40625 7.3125 -2 C 7.8125 -2.59375 8.0625 -3.414062 8.0625 -4.46875 C 8.0625 -5.519531 7.8125 -6.332031 7.3125 -6.90625 C 6.820312 -7.488281 6.144531 -7.78125 5.28125 -7.78125 C 4.425781 -7.78125 3.75 -7.488281 3.25 -6.90625 C 2.75 -6.332031 2.5 -5.519531 2.5 -4.46875 C 2.5 -3.414062 2.75 -2.59375 3.25 -2 C 3.757812 -1.40625 4.4375 -1.109375 5.28125 -1.109375 Z M 5.28125 -1.109375 "/></g></g></g><g fill="#cc4e00" fill-opacity="1"><g transform="translate(246.688235, 331.89323)"><g><path d="M 5.390625 3.4375 C 4.648438 3.4375 3.9375 3.332031 3.25 3.125 C 2.570312 2.914062 1.972656 2.617188 1.453125 2.234375 L 1.953125 1.078125 C 2.304688 1.316406 2.664062 1.515625 3.03125 1.671875 C 3.40625 1.835938 3.78125 1.957031 4.15625 2.03125 C 4.539062 2.113281 4.9375 2.15625 5.34375 2.15625 C 6.25 2.15625 6.941406 1.921875 7.421875 1.453125 C 7.898438 0.984375 8.140625 0.316406 8.140625 -0.546875 L 8.140625 -2.390625 L 8.203125 -2.390625 C 8.015625 -1.742188 7.628906 -1.222656 7.046875 -0.828125 C 6.460938 -0.429688 5.789062 -0.234375 5.03125 -0.234375 C 4.207031 -0.234375 3.488281 -0.414062 2.875 -0.78125 C 2.257812 -1.15625 1.785156 -1.675781 1.453125 -2.34375 C 1.128906 -3.007812 0.96875 -3.773438 0.96875 -4.640625 C 0.96875 -5.523438 1.128906 -6.300781 1.453125 -6.96875 C 1.785156 -7.632812 2.257812 -8.148438 2.875 -8.515625 C 3.488281 -8.878906 4.207031 -9.0625 5.03125 -9.0625 C 5.800781 -9.0625 6.476562 -8.863281 7.0625 -8.46875 C 7.644531 -8.070312 8.03125 -7.535156 8.21875 -6.859375 L 8.140625 -6.859375 L 8.140625 -8.890625 L 9.625 -8.890625 L 9.625 -0.71875 C 9.625 0.15625 9.457031 0.90625 9.125 1.53125 C 8.800781 2.15625 8.320312 2.628906 7.6875 2.953125 C 7.0625 3.273438 6.296875 3.4375 5.390625 3.4375 Z M 5.296875 -1.484375 C 6.160156 -1.484375 6.84375 -1.769531 7.34375 -2.34375 C 7.851562 -2.925781 8.109375 -3.691406 8.109375 -4.640625 C 8.109375 -5.609375 7.851562 -6.378906 7.34375 -6.953125 C 6.84375 -7.523438 6.160156 -7.8125 5.296875 -7.8125 C 4.441406 -7.8125 3.757812 -7.523438 3.25 -6.953125 C 2.75 -6.378906 2.5 -5.609375 2.5 -4.640625 C 2.5 -3.691406 2.75 -2.925781 3.25 -2.34375 C 3.757812 -1.769531 4.441406 -1.484375 5.296875 -1.484375 Z M 5.296875 -1.484375 "/></g></g></g></svg>